<svg width="367" height="362" viewBox="0 0 367 362" fill="none" xmlns="http://www.w3.org/2000/svg" id="svg-508146376_15125">
<g clip-path="url(#svg-508146376_15125_clip0_1130_3299)">
<path d="M100.379 175.71C92.2086 175.71 85.5586 169.06 85.5586 160.89C85.5586 152.72 92.2086 146.07 100.379 146.07C108.549 146.07 115.199 152.72 115.199 160.89C115.199 169.06 108.549 175.71 100.379 175.71Z" fill="#F74A53"></path>
<path d="M100.379 147.58C107.729 147.58 113.699 153.54 113.699 160.9C113.699 168.26 107.739 174.22 100.379 174.22C93.0186 174.22 87.0586 168.26 87.0586 160.9C87.0586 153.54 93.0186 147.58 100.379 147.58ZM100.379 144.58C91.3786 144.58 84.0586 151.9 84.0586 160.9C84.0586 169.9 91.3786 177.22 100.379 177.22C109.379 177.22 116.699 169.9 116.699 160.9C116.699 151.9 109.379 144.58 100.379 144.58Z" fill="#F74A53"></path>
<path d="M175.443 243.049C170.633 243.049 166.723 239.139 166.723 234.329C166.723 229.519 170.633 225.609 175.443 225.609C180.253 225.609 184.163 229.519 184.163 234.329C184.163 239.139 180.253 243.049 175.443 243.049Z" fill="#F74A53"></path>
<path d="M175.431 227.109C179.421 227.109 182.651 230.339 182.651 234.329C182.651 238.319 179.421 241.549 175.431 241.549C171.441 241.549 168.211 238.319 168.211 234.329C168.211 230.339 171.441 227.109 175.431 227.109ZM175.431 224.109C169.791 224.109 165.211 228.699 165.211 234.329C165.211 239.959 169.801 244.549 175.431 244.549C181.061 244.549 185.651 239.959 185.651 234.329C185.651 228.699 181.061 224.109 175.431 224.109Z" fill="#F74A53"></path>
<path d="M139.849 33.0005C144.665 33.0005 148.569 29.0965 148.569 24.2805C148.569 19.4646 144.665 15.5605 139.849 15.5605C135.033 15.5605 131.129 19.4646 131.129 24.2805C131.129 29.0965 135.033 33.0005 139.849 33.0005Z" fill="#F74A53"></path>
<path d="M139.849 17.0605C143.839 17.0605 147.069 20.2905 147.069 24.2805C147.069 28.2705 143.839 31.5005 139.849 31.5005C135.859 31.5005 132.629 28.2705 132.629 24.2805C132.629 20.2905 135.859 17.0605 139.849 17.0605ZM139.849 14.0605C134.209 14.0605 129.629 18.6505 129.629 24.2805C129.629 29.9105 134.219 34.5005 139.849 34.5005C145.479 34.5005 150.069 29.9105 150.069 24.2805C150.069 18.6505 145.479 14.0605 139.849 14.0605Z" fill="#F74A53"></path>
<path d="M129.73 360.08C128.68 360.08 127.61 360 126.58 359.83C120.06 358.8 114.67 354.63 112.18 348.67L111.53 347.12L111.04 258.71C110.71 258.53 110.3 258.43 109.84 258.43C109.77 258.43 109.69 258.43 109.61 258.43L49.59 274.61L49.1 274.68C48.06 274.84 47.01 274.91 45.98 274.91C39.94 274.91 34.42 272.24 30.85 267.57C26.62 262.05 25.84 254.77 28.75 248.1L28.93 247.72L51.35 203.06C51.7 202.15 51.65 201.31 51.21 200.81L8.99998 175.07L8.61998 174.78C3.51998 170.82 0.899978 164.54 1.59998 157.98C2.37998 150.76 7.06998 144.26 13.84 141.02L66.84 115.69C68.43 114.93 69.58 113.29 69.52 111.87L66.86 57.2899C66.53 50.5599 69.68 43.9799 75.28 39.6899C79.07 36.7899 83.71 35.1899 88.33 35.1899C90.43 35.1899 92.49 35.5099 94.47 36.1499L94.7 36.2299L141.59 52.9899C141.78 53.0499 142.07 53.0899 142.37 53.0899C143.61 53.0899 144.94 52.4299 145.86 51.3699L146.44 50.6999L147.15 50.1599L197.83 16.0399C201.94 11.6699 207.65 9.16992 213.52 9.16992C218.21 9.16992 222.02 12.9799 222.02 17.6699C222.02 22.3599 218.21 26.1699 213.52 26.1699C212.24 26.1699 210.97 26.7999 210.04 27.8899L209.43 28.5999L158.07 63.2299C153.95 67.5899 148.22 70.0899 142.33 70.0899C140.24 70.0899 138.2 69.7699 136.26 69.1399L136.03 69.0599L89.13 52.2999C88.93 52.2399 88.64 52.1999 88.33 52.1999C87.43 52.1999 86.47 52.5599 85.63 53.1999C84.46 54.0899 83.8 55.3199 83.85 56.4699L86.51 111.05C86.91 119.29 81.96 127.32 74.18 131.04L21.18 156.37C19.4 157.22 18.63 158.7 18.51 159.81C18.43 160.56 18.63 160.94 18.85 161.18L61.08 186.93L61.46 187.22C68.33 192.55 70.5 201.72 66.88 210.03L66.7 210.41L44.27 255.07C44.02 255.71 43.84 256.59 44.35 257.25C44.69 257.7 45.25 257.92 46 257.92C46.08 257.92 46.16 257.92 46.24 257.92L106.26 241.74L106.75 241.67C107.78 241.52 108.83 241.44 109.86 241.44C117.71 241.44 124.41 245.81 127.36 252.85L128.01 254.4L128.5 342.83C128.7 342.93 128.94 343 129.22 343.05C129.38 343.07 129.55 343.09 129.73 343.09C130.28 343.09 131.66 342.95 132.92 341.71L193.16 248.07L193.54 247.62C197.64 242.84 203.79 239.99 209.98 239.99C212.07 239.99 214.11 240.31 216.06 240.94L216.81 241.19L278.21 274.62C278.34 274.64 278.48 274.65 278.62 274.65C279.51 274.65 280.47 274.29 281.31 273.65C282.47 272.76 283.13 271.55 283.09 270.41L280.01 223.56C279.61 215.29 284.56 207.26 292.34 203.55L345.34 178.22C347.12 177.37 347.88 175.89 348 174.78C348.08 174.03 347.88 173.65 347.66 173.41L305.43 147.66L305.05 147.37C298.18 142.04 296 132.87 299.63 124.56L299.67 124.46L330.62 74.8499C330.89 74.1799 331.08 73.2899 330.56 72.6099C330.22 72.1599 329.67 71.9399 328.92 71.9399C328.72 71.9399 328.52 71.9599 328.31 71.9899C327.89 72.0499 327.47 72.0799 327.05 72.0799C322.87 72.0799 319.26 68.9599 318.65 64.8299C318.32 62.5799 318.88 60.3399 320.23 58.5199C321.58 56.6999 323.56 55.5099 325.81 55.1699C326.85 55.0099 327.9 54.9399 328.93 54.9399C334.97 54.9399 340.49 57.6099 344.06 62.2799C348.29 67.7999 349.07 75.0799 346.16 81.7499L346.12 81.8499L315.17 131.46C314.79 132.39 314.84 133.26 315.28 133.78L357.49 159.52L357.87 159.81C362.97 163.77 365.59 170.05 364.89 176.61C364.11 183.83 359.42 190.33 352.65 193.57L299.65 218.9C298.05 219.67 296.92 221.26 296.98 222.69L300.06 269.54C300.39 276.29 297.24 282.87 291.64 287.16C287.85 290.06 283.21 291.66 278.59 291.66C276.49 291.66 274.43 291.34 272.46 290.7L271.7 290.45L210.32 257.02C210.2 257.01 210.08 257 209.95 257C208.84 257 207.62 257.53 206.74 258.39L146.51 352.02L146.13 352.47C141.96 357.32 135.98 360.11 129.73 360.11V360.08Z" fill="#F74A53"></path>
<path d="M213.512 10.6606C217.382 10.6606 220.512 13.7906 220.512 17.6606C220.512 21.5306 217.382 24.6606 213.512 24.6606C211.792 24.6606 210.112 25.4806 208.892 26.9006L208.412 27.4606L157.082 62.0706C153.192 66.2506 147.742 68.5806 142.322 68.5806C140.422 68.5806 138.532 68.3006 136.712 67.7106L136.512 67.6406L89.6319 50.8906C89.2119 50.7606 88.7719 50.7006 88.3319 50.7006C87.1219 50.7006 85.8419 51.1506 84.7219 52.0106C83.1619 53.2006 82.2819 54.9006 82.3619 56.5506L85.0219 111.131C85.3919 118.781 80.7819 126.231 73.5419 129.691L20.5419 155.021C18.2019 156.141 17.1919 158.141 17.0319 159.651C16.9119 160.791 17.2119 161.711 17.9319 162.371L60.2319 188.171L60.5419 188.411C66.8619 193.311 68.8519 201.761 65.5119 209.441L65.3519 209.781L42.9119 254.461C42.3319 255.881 42.4219 257.191 43.1719 258.171C43.8019 259.001 44.8019 259.431 46.0119 259.431C46.1719 259.431 46.3419 259.431 46.5119 259.411L106.582 243.221L106.982 243.161C107.952 243.011 108.922 242.941 109.872 242.941C116.992 242.941 123.262 246.921 125.992 253.431L126.532 254.711L127.022 343.551C127.492 344.071 128.152 344.401 129.002 344.531C129.232 344.571 129.482 344.591 129.752 344.591C131.082 344.591 132.742 344.081 134.112 342.651L194.372 248.971L194.682 248.601C198.602 244.041 204.302 241.491 209.982 241.491C211.882 241.491 213.772 241.771 215.592 242.361L216.212 242.561L277.712 276.051C278.002 276.111 278.312 276.141 278.612 276.141C279.822 276.141 281.102 275.691 282.222 274.831C283.772 273.651 284.652 271.971 284.592 270.341L281.512 223.451C281.142 215.811 285.752 208.351 292.982 204.891L345.982 179.561C348.322 178.441 349.332 176.441 349.492 174.931C349.612 173.791 349.312 172.881 348.592 172.211L306.292 146.411L305.982 146.171C299.662 141.271 297.672 132.821 301.012 125.141L331.972 75.5206C332.612 74.0506 332.542 72.6806 331.772 71.6706C331.142 70.8406 330.152 70.4106 328.942 70.4106C328.672 70.4106 328.392 70.4306 328.112 70.4706C327.762 70.5206 327.422 70.5506 327.072 70.5506C323.652 70.5506 320.672 68.0606 320.152 64.5806C319.582 60.7606 322.222 57.2006 326.042 56.6306C327.022 56.4806 327.992 56.4106 328.942 56.4106C334.492 56.4106 339.562 58.8306 342.882 63.1606C346.772 68.2406 347.492 74.9506 344.802 81.1206L313.842 130.731C313.132 132.351 313.342 133.961 314.352 134.921L356.652 160.711L356.962 160.951C361.652 164.591 364.062 170.371 363.412 176.411C362.692 183.121 358.322 189.161 352.022 192.171L299.022 217.501C296.862 218.531 295.422 220.671 295.492 222.701L298.572 269.591C298.872 275.831 295.952 281.931 290.742 285.921C287.152 288.671 282.862 290.111 278.602 290.111C276.682 290.111 274.772 289.821 272.932 289.221L272.312 289.021L210.822 255.541C210.542 255.491 210.262 255.461 209.962 255.461C208.432 255.461 206.772 256.181 205.572 257.411L145.312 351.081L144.992 351.451C141.102 355.981 135.452 358.571 129.722 358.571C128.752 358.571 127.772 358.491 126.802 358.341C120.802 357.391 115.842 353.561 113.552 348.081L113.012 346.801L112.522 257.981C111.902 257.301 110.942 256.911 109.832 256.911C109.672 256.911 109.512 256.911 109.342 256.931L49.2719 273.121L48.8719 273.181C47.8919 273.331 46.9219 273.401 45.9719 273.401C40.4219 273.401 35.3519 270.981 32.0319 266.651C28.1419 261.571 27.4219 254.861 30.1119 248.691L30.2719 248.351L52.7119 203.671C53.3519 202.091 53.1319 200.551 52.1419 199.621L9.84192 173.831L9.53192 173.591C4.84192 169.951 2.43192 164.171 3.08192 158.131C3.80192 151.421 8.17192 145.381 14.4719 142.371L67.4719 117.041C69.6119 116.021 71.0919 113.811 71.0019 111.791L68.3419 57.2106C68.0419 50.9706 70.9619 44.8706 76.1719 40.8806C79.7619 38.1306 84.0419 36.6906 88.3019 36.6906C90.2219 36.6906 92.1319 36.9806 93.9819 37.5806L94.1819 37.6506L141.052 54.4006C141.462 54.5206 141.892 54.5806 142.342 54.5806C143.982 54.5806 145.742 53.7606 146.962 52.3306L147.442 51.7806L148.022 51.3306L198.772 17.1606C202.622 13.0106 207.942 10.6406 213.482 10.6406M213.482 7.64062C207.262 7.64062 201.202 10.2706 196.822 14.8606L146.352 48.8406L146.272 48.8906L146.202 48.9506L145.622 49.4006L145.372 49.5906L145.172 49.8306L144.692 50.3806C144.062 51.1106 143.142 51.5806 142.342 51.5806C142.212 51.5806 142.082 51.5706 141.972 51.5406L95.1919 34.8206L94.9519 34.7406C92.7819 34.0406 90.5619 33.6906 88.3119 33.6906C83.3619 33.6906 78.4019 35.4006 74.3519 38.5006C68.3619 43.0906 64.9919 50.1406 65.3419 57.3606L68.0019 111.941C68.0319 112.661 67.3119 113.791 66.1819 114.331L13.1819 139.661C5.94192 143.121 0.931919 150.071 0.101919 157.811C-0.658081 164.891 2.18192 171.681 7.69192 175.961L8.00192 176.201L8.14192 176.311L8.29192 176.401L50.0719 201.881C50.0719 202.001 50.0719 202.201 49.9719 202.471L27.6019 247.021L27.5819 247.061L27.5619 247.101L27.4019 247.441L27.3819 247.481L27.3619 247.521C24.2319 254.701 25.0819 262.551 29.6419 268.511C33.5019 273.551 39.4519 276.441 45.9619 276.441C47.0719 276.441 48.1919 276.361 49.3019 276.191L49.7019 276.131L49.8719 276.101L50.0419 276.051L109.522 260.021L110.002 346.841V347.431L110.232 347.981L110.772 349.261C113.462 355.701 119.282 360.211 126.322 361.321C127.442 361.501 128.582 361.581 129.712 361.581C136.412 361.581 142.802 358.601 147.252 353.421L147.562 353.061L147.702 352.901L147.812 352.721L207.882 259.341C208.462 258.821 209.222 258.491 209.882 258.481L270.842 291.681L271.092 291.811L271.362 291.901L271.982 292.101C274.102 292.791 276.322 293.131 278.582 293.131C283.532 293.131 288.492 291.421 292.542 288.321C298.532 283.731 301.902 276.681 301.552 269.461V269.441V269.411L298.472 222.571C298.472 221.841 299.132 220.771 300.292 220.221L353.292 194.891C360.532 191.431 365.542 184.481 366.372 176.741C367.132 169.651 364.292 162.871 358.782 158.591L358.482 158.351L358.342 158.241L358.192 158.151L316.412 132.671C316.412 132.551 316.412 132.361 316.512 132.091L347.332 82.7006L347.452 82.5106L347.542 82.3106C350.672 75.1306 349.822 67.2806 345.252 61.3206C341.392 56.2806 335.442 53.3906 328.932 53.3906C327.822 53.3906 326.702 53.4706 325.582 53.6406C322.942 54.0306 320.612 55.4306 319.022 57.5806C317.432 59.7306 316.772 62.3606 317.162 65.0106C317.882 69.8706 322.132 73.5406 327.052 73.5406C327.542 73.5406 328.042 73.5006 328.522 73.4306C328.672 73.4106 328.802 73.4006 328.922 73.4006C329.212 73.4006 329.352 73.4606 329.372 73.4806C329.392 73.5106 329.422 73.7406 329.272 74.1406L298.452 123.541L298.332 123.731L298.242 123.931C294.332 132.881 296.702 142.771 304.122 148.531L304.432 148.771L304.572 148.881L304.722 148.971L346.512 174.461C346.512 174.461 346.512 174.551 346.512 174.611C346.492 174.761 346.312 176.081 344.692 176.851L291.692 202.181C283.382 206.151 278.082 214.761 278.512 223.591V223.621V223.651L281.592 270.491C281.602 271.121 281.142 271.891 280.402 272.461C279.832 272.901 279.192 273.151 278.642 273.151L217.652 239.941L217.412 239.811L217.142 239.721L216.522 239.521C214.422 238.841 212.222 238.501 209.982 238.501C203.362 238.501 196.792 241.551 192.412 246.661L192.102 247.031L191.972 247.191L191.862 247.361L131.782 340.761C131.112 341.371 130.432 341.541 130.022 341.591L129.542 254.711V254.121L129.312 253.571L128.772 252.291C125.592 244.681 118.352 239.961 109.892 239.961C108.792 239.961 107.662 240.041 106.562 240.211L106.162 240.271L105.992 240.301L105.822 240.351L46.0519 256.461H46.0419C45.7419 256.461 45.6019 256.401 45.5819 256.381C45.5519 256.351 45.5319 256.121 45.6819 255.711L68.0519 211.151L68.0719 211.111L68.0919 211.071L68.2519 210.731L68.2719 210.691L68.2919 210.651C72.2019 201.701 69.8319 191.811 62.4119 186.051L62.1019 185.811L61.9619 185.701L61.8119 185.611L20.0219 160.121C20.0219 160.121 20.0219 160.031 20.0219 159.961C20.0419 159.811 20.2219 158.491 21.8419 157.721L74.8419 132.391C83.1519 128.421 88.4519 119.811 88.0219 110.981L85.3619 56.4006C85.3319 55.7606 85.8019 54.9706 86.5519 54.3906C87.1219 53.9506 87.7819 53.7006 88.3419 53.7006C88.4819 53.7006 88.6119 53.7206 88.7319 53.7506L135.512 70.4706L135.752 70.5506C137.892 71.2406 140.092 71.5806 142.332 71.5806C148.582 71.5806 154.652 68.9606 159.042 64.3706L210.092 29.9406L210.432 29.7106L210.692 29.4006L211.172 28.8406C211.822 28.0806 212.682 27.6506 213.512 27.6506C219.022 27.6506 223.512 23.1606 223.512 17.6506C223.512 12.1406 219.022 7.65063 213.512 7.65063L213.482 7.64062Z" fill="#F74A53"></path>
<path d="M205.472 147.58H245.882C248.682 147.58 251.242 146.02 252.532 143.54L319.412 24.96C322.012 19.97 318.382 14 312.762 14L247.832 0C244.572 0 241.692 2.1 240.692 5.2L198.332 137.78C196.772 142.62 200.382 147.57 205.472 147.57V147.58Z" fill="#F74A53"></path>
<path d="M223.332 193.101L238.772 167.241C241.342 162.941 237.762 157.801 232.202 157.801H198.212C194.992 157.801 192.142 159.611 191.162 162.281L181.612 188.141C180.072 192.311 183.642 196.571 188.662 196.571H216.762C219.522 196.571 222.062 195.231 223.332 193.091V193.101Z" fill="#F74A53"></path>
<path d="M197.152 77.3194L153.242 83.7194C151.072 84.0394 149.352 85.7193 148.992 87.8793L136.932 170.539C136.362 173.919 139.252 176.859 142.642 176.369L169.562 172.449C171.422 172.179 172.982 170.889 173.602 169.109L202.662 83.9694C203.902 80.3894 200.912 76.7694 197.162 77.3194H197.152Z" fill="#F74A53"></path>
<path d="M160.44 210.829L167.93 189.309C169.17 185.729 166.18 182.109 162.43 182.659L139.53 185.999C137.36 186.319 135.64 187.999 135.28 190.159L131.76 211.099C131.19 214.479 134.08 217.419 137.47 216.929L156.4 214.169C158.26 213.899 159.82 212.609 160.44 210.829Z" fill="#F74A53"></path>
</g>
<defs>
<clipPath id="svg-508146376_15125_clip0_1130_3299">
<rect width="366.52" height="361.58" fill="white"></rect>
</clipPath>
</defs>
</svg>