<svg xmlns="http://www.w3.org/2000/svg" xmlns:xlink="http://www.w3.org/1999/xlink" viewBox="0 0 146 64" id="svg4157900252"><g transform="translate(0.396 0)" id="ss4157900252_1"><path d="M -0 64.4 L -0 0.4 L 145.202 0.4 L 145.202 64.4 Z" fill="transparent"></path><path d="M 145.202 32.032 C 145.202 32.032 145.202 32.016 145.202 32 C 145.202 31.984 145.202 31.984 145.202 31.968 L 145.202 30.92 L 145.154 30.92 C 143.87 13.752 111.877 -0 72.601 -0 C 32.503 -0 0 14.328 0 32 C 0 49.672 32.503 64 72.601 64 C 111.877 64 143.87 50.248 145.154 33.08 L 145.202 33.08 Z M 122.366 11.344 C 125.549 12.744 128.429 14.28 130.926 15.912 C 133.416 17.536 135.538 19.256 137.245 21.04 C 140.165 24.08 141.832 27.24 142.239 30.448 C 142.271 30.696 142.072 30.92 141.816 30.92 C 139.335 30.92 127.839 30.92 125.581 30.92 C 125.358 30.92 125.19 30.752 125.166 30.528 C 124.416 20.592 116.127 11.84 103.649 6.288 C 103.17 6.08 103.402 5.36 103.912 5.472 C 110.742 6.976 116.933 8.944 122.366 11.344 Z M 72.307 61.848 C 68.302 61.848 64.417 61.056 60.755 59.504 C 57.22 58 54.045 55.848 51.317 53.104 C 48.588 50.36 46.45 47.168 44.958 43.616 C 43.41 39.936 42.628 36.032 42.628 32 C 42.628 27.968 43.41 24.064 44.958 20.384 C 46.45 16.832 48.596 13.64 51.317 10.896 C 54.045 8.152 57.22 6 60.755 4.496 C 64.409 2.944 68.302 2.152 72.307 2.152 C 76.312 2.152 80.197 2.944 83.859 4.496 C 87.394 6 90.569 8.152 93.298 10.896 C 96.026 13.64 98.164 16.832 99.656 20.384 C 101.204 24.064 101.986 27.968 101.986 32 C 101.986 36.032 101.204 39.936 99.656 43.616 C 98.164 47.168 96.018 50.36 93.298 53.104 C 90.569 55.848 87.394 58 83.859 59.504 C 80.205 61.064 76.312 61.848 72.307 61.848 Z M 56.051 4.576 C 47.203 9.936 41.172 19.496 40.669 30.52 C 40.661 30.744 40.478 30.92 40.254 30.92 L 21.745 30.92 C 21.498 30.92 21.29 30.704 21.314 30.456 C 21.609 27.128 22.846 23.888 25.032 20.784 C 27.545 17.216 31.175 14 35.818 11.216 C 40.542 8.384 46.054 6.16 52.206 4.6 C 53.37 4.304 54.551 4.04 55.74 3.8 C 56.203 3.704 56.45 4.336 56.043 4.576 Z M 40.669 33.48 C 41.172 44.504 47.203 54.064 56.051 59.424 C 56.45 59.664 56.203 60.296 55.748 60.2 C 54.551 59.96 53.37 59.696 52.206 59.4 C 46.054 57.84 40.542 55.616 35.818 52.784 C 31.175 50 27.545 46.784 25.032 43.216 C 22.846 40.12 21.609 36.872 21.314 33.544 C 21.29 33.296 21.498 33.08 21.745 33.08 L 40.254 33.08 C 40.478 33.08 40.661 33.256 40.669 33.48 Z M 88.38 59.424 C 97.228 54.064 103.267 44.504 103.762 33.48 C 103.77 33.256 103.953 33.08 104.177 33.08 L 122.686 33.08 C 122.933 33.08 123.141 33.296 123.117 33.544 C 122.822 36.872 121.585 40.12 119.399 43.216 C 116.886 46.784 113.256 50 108.613 52.784 C 103.89 55.616 98.377 57.84 92.226 59.4 C 91.061 59.696 89.88 59.96 88.683 60.2 C 88.221 60.296 87.973 59.664 88.38 59.424 Z M 103.762 30.52 C 103.259 19.504 97.228 9.936 88.38 4.576 C 87.981 4.336 88.228 3.704 88.683 3.8 C 89.88 4.04 91.061 4.304 92.226 4.6 C 98.377 6.16 103.89 8.384 108.613 11.216 C 113.256 14 116.886 17.216 119.399 20.784 C 121.585 23.88 122.822 27.128 123.117 30.456 C 123.141 30.704 122.933 30.92 122.686 30.92 L 104.177 30.92 C 103.953 30.92 103.77 30.744 103.762 30.52 Z M 7.229 21.04 C 8.936 19.264 11.058 17.536 13.547 15.912 C 16.045 14.28 18.925 12.744 22.108 11.344 C 28.451 8.552 35.822 6.336 44.04 4.76 C 44.152 4.736 44.199 4.904 44.096 4.944 C 29.807 10.368 20.121 19.76 19.308 30.536 C 19.292 30.76 19.116 30.928 18.893 30.928 C 16.635 30.928 5.154 30.928 2.665 30.928 C 2.41 30.928 2.21 30.704 2.242 30.448 C 2.649 27.24 4.317 24.08 7.237 21.04 Z M 41.998 58.832 C 34.602 57.288 27.916 55.216 22.1 52.656 C 18.925 51.256 16.037 49.72 13.54 48.088 C 11.05 46.464 8.928 44.744 7.221 42.96 C 4.301 39.92 2.641 36.76 2.227 33.552 C 2.195 33.296 2.394 33.072 2.649 33.072 C 5.139 33.072 16.619 33.072 18.877 33.072 C 19.1 33.072 19.268 33.24 19.292 33.464 C 20.066 43.752 28.929 52.768 42.157 58.288 C 42.476 58.424 42.325 58.904 41.99 58.832 Z M 137.252 42.96 C 135.545 44.736 133.422 46.464 130.933 48.088 C 128.436 49.72 125.556 51.256 122.373 52.656 C 116.285 55.336 109.257 57.488 101.446 59.048 C 101.223 59.096 101.135 58.776 101.342 58.688 C 115.113 53.208 124.383 44.008 125.181 33.472 C 125.197 33.248 125.372 33.08 125.596 33.08 C 127.854 33.08 139.342 33.08 141.823 33.08 C 142.079 33.08 142.278 33.304 142.246 33.56 C 141.839 36.768 140.172 39.928 137.252 42.968 Z" fill="var(--token-3fae3c5f-e5d5-4d85-bd80-09eaae28806f, rgb(2, 17, 32)) /* {&quot;name&quot;:&quot;dark&quot;} */"></path></g></svg>