<svg width="314" height="369" viewBox="0 0 314 369" fill="none" xmlns="http://www.w3.org/2000/svg" id="svg593334405_12969">
<g clip-path="url(#svg593334405_12969_clip0_1130_3271)">
<path d="M155.569 124.35C155.719 124.35 155.869 124.35 156.019 124.34C158.139 124.22 160.119 123.26 161.539 121.68L198.799 79.9497C201.739 76.6597 201.459 71.5997 198.159 68.6597C194.869 65.7197 189.809 65.9997 186.869 69.2997L154.939 105.06L137.169 89.1897C133.869 86.2497 128.819 86.5297 125.869 89.8297C122.929 93.1297 123.209 98.1797 126.509 101.13L150.239 122.32C151.709 123.63 153.609 124.35 155.569 124.35Z" fill="#F74A53"></path>
<path d="M137.51 367.6H137.12C133.54 367.6 101.88 367.1 81.71 349.97C80.23 360.57 71.23 368.45 60.42 368.45H22.01C10.15 368.45 0.5 358.8 0.5 346.94V219.22C0.5 207.36 10.15 197.71 22.01 197.71H60.43C71.27 197.71 80.3 205.65 81.74 216.31C85.46 214.29 89.81 212.42 94.7 210.75C107.51 206.36 123.77 203.43 141.76 202.27L140.84 186.08L112.37 187.69C111.7 187.73 111.04 187.75 110.38 187.75C101.81 187.75 93.57 184.6 87.17 178.89C80.22 172.68 76.1 164.14 75.58 154.84L69.29 43.64C68.21 24.43 82.95 7.93 102.15 6.84L213.34 0.55C214 0.51 214.66 0.5 215.31 0.5C223.89 0.5 232.14 3.65 238.55 9.36C245.5 15.57 249.62 24.11 250.14 33.41L256.43 144.61C256.96 153.91 253.83 162.86 247.62 169.82C241.41 176.78 232.87 180.89 223.57 181.41L195.1 183.02L196.16 201.72H234.61C251.43 201.72 265.11 215.4 265.11 232.22V242.67C265.11 244.26 264.93 245.85 264.57 247.38C275 250.46 282.24 260.11 282.24 271.02V278.47C282.24 289.05 275.27 298.62 265.24 301.9C265.52 303.22 265.65 304.58 265.65 305.94V311.27C265.65 321.74 259.18 331.35 249.5 335.31C249.63 336.19 249.7 337.09 249.7 337.98V344.55C249.7 350.97 247.19 357 242.62 361.52C238.12 365.98 232.15 368.44 225.81 368.44L137.51 367.59V367.6ZM225.74 351.45C227.63 351.45 229.35 350.74 230.65 349.45C231.97 348.15 232.69 346.41 232.69 344.55V337.98C232.69 337.57 232.36 337.23 231.94 337.23H214.81C210.12 337.23 206.31 333.42 206.31 328.73C206.31 324.04 210.12 320.23 214.81 320.23H239.67C244.62 320.23 248.64 316.21 248.64 311.26V305.93C248.64 304.45 247.47 303.22 245.98 303.12H231.04C226.35 303.12 222.54 299.31 222.54 294.62C222.54 289.93 226.35 286.12 231.04 286.12H245.5C245.6 286.11 245.7 286.1 245.8 286.1H257.57C261.78 286.1 265.21 282.67 265.21 278.46V271.01C265.21 266.8 261.78 263.37 257.57 263.37H244.37C243.88 263.37 243.38 263.32 242.87 263.23C242.36 263.32 241.86 263.37 241.37 263.37H223.3C218.61 263.37 214.8 259.56 214.8 254.87C214.8 250.18 218.61 246.37 223.3 246.37H241.37C241.86 246.37 242.36 246.42 242.87 246.51C243.38 246.42 243.88 246.37 244.37 246.37C246.41 246.37 248.08 244.71 248.08 242.66V232.21C248.08 224.77 242.03 218.71 234.58 218.71H159.23C157.47 218.71 155.75 218.73 154.06 218.76L151.18 218.92C151.02 218.92 150.85 218.93 150.69 218.93C150.35 218.93 150.01 218.9 149.68 218.86C102.31 220.49 81.9 234.11 81.9 238.21C81.9 241.78 81.97 245.71 82.03 248.86C82.09 252.44 82.15 255.44 82.12 257.78C82.04 267.17 81.9 286.79 81.9 312.63C81.9 321.93 84.81 329.33 90.79 335.26C105.53 349.85 134.08 350.55 137.29 350.58H137.49L225.71 351.43L225.74 351.45ZM22.01 214.72C19.53 214.72 17.5 216.74 17.5 219.23V346.95C17.5 349.43 19.52 351.46 22.01 351.46H60.43C62.92 351.46 64.94 349.44 64.94 346.95V219.23C64.94 216.75 62.92 214.72 60.43 214.72H22.01ZM148.85 168.62C153.35 168.62 157.07 172.14 157.33 176.64L158.73 201.47L179.04 200.32L177.64 175.49C177.51 173.22 178.27 171.04 179.79 169.35C181.3 167.66 183.38 166.65 185.65 166.53L222.61 164.44C227.38 164.17 231.76 162.06 234.94 158.5C238.12 154.94 239.73 150.35 239.46 145.58L233.17 34.38C232.9 29.61 230.79 25.23 227.23 22.05C223.95 19.12 219.73 17.5 215.35 17.5C215 17.5 214.66 17.5 214.31 17.53L103.11 23.82C98.34 24.09 93.96 26.2 90.78 29.76C87.6 33.32 85.99 37.91 86.26 42.68L92.55 153.88C92.82 158.65 94.93 163.03 98.49 166.21C101.77 169.14 106 170.75 110.39 170.75C110.73 170.75 111.07 170.75 111.41 170.72L148.37 168.63C148.53 168.63 148.7 168.62 148.86 168.62H148.85Z" fill="#F74A53"></path>
<path d="M215.31 1C223.77 1 231.85 4.05 238.21 9.74C245.06 15.86 249.12 24.28 249.64 33.45L255.93 144.65C256.45 153.82 253.36 162.64 247.25 169.49C241.14 176.34 232.71 180.4 223.54 180.92L194.57 182.56L195.68 202.23H234.61C251.15 202.23 264.61 215.69 264.61 232.23V242.68C264.61 244.43 264.39 246.12 263.97 247.74C274.2 250.54 281.74 259.92 281.74 271.03V278.48C281.74 289.34 274.53 298.55 264.66 301.57C264.99 302.98 265.16 304.44 265.16 305.95V311.28C265.16 322.06 258.43 331.3 248.95 335.01C249.12 335.98 249.21 336.98 249.21 338V344.57C249.21 350.86 246.75 356.76 242.28 361.19C237.87 365.56 232.03 367.96 225.83 367.96C225.75 367.96 225.68 367.96 225.6 367.96L137.54 367.11C137.45 367.11 137.31 367.11 137.14 367.11C132.6 367.11 101.09 366.38 81.35 348.98C80.33 359.61 71.34 367.96 60.45 367.96H22.01C10.43 367.96 1 358.54 1 346.95V219.23C1 207.65 10.42 198.22 22.01 198.22H60.43C71.3 198.22 80.27 206.52 81.33 217.12C84.99 215.07 89.45 213.09 94.86 211.23C107.83 206.78 124.28 203.87 142.29 202.75L141.32 185.56L112.35 187.2C111.69 187.24 111.04 187.26 110.39 187.26C101.95 187.26 93.87 184.2 87.51 178.52C80.66 172.4 76.6 163.98 76.08 154.81L69.79 43.61C68.72 24.68 83.25 8.41 102.18 7.34L213.37 1.05C214.02 1.01 214.67 1 215.31 1ZM110.38 171.25C110.73 171.25 111.08 171.25 111.43 171.22L148.39 169.13C148.54 169.13 148.7 169.12 148.85 169.12C153.06 169.12 156.59 172.41 156.83 176.67L158.26 202L179.57 200.79L178.14 175.46C177.89 171.05 181.26 167.27 185.68 167.02L222.64 164.93C227.54 164.65 232.05 162.48 235.32 158.82C238.59 155.16 240.24 150.44 239.96 145.54L233.67 34.34C233.39 29.44 231.22 24.93 227.56 21.66C224.16 18.63 219.86 16.99 215.35 16.99C214.99 16.99 214.64 17 214.28 17.02L103.08 23.31C98.18 23.59 93.67 25.76 90.4 29.42C87.13 33.08 85.48 37.8 85.76 42.7L92.05 153.9C92.33 158.8 94.5 163.3 98.16 166.58C101.56 169.62 105.86 171.25 110.39 171.25M22.01 351.95H60.43C63.19 351.95 65.44 349.7 65.44 346.94V219.22C65.44 216.46 63.19 214.21 60.43 214.21H22.01C19.25 214.21 17 216.46 17 219.22V346.94C17 349.7 19.25 351.95 22.01 351.95ZM150.72 218.45C150.4 218.45 150.08 218.42 149.77 218.39C102.12 220.02 81.43 233.7 81.43 238.23C81.43 241.74 81.5 245.54 81.56 248.89C81.62 252.41 81.68 255.44 81.65 257.8C81.57 267.26 81.43 286.97 81.43 312.65C81.43 322.09 84.39 329.61 90.47 335.63C106.24 351.23 137.09 351.08 137.42 351.09C137.45 351.09 137.49 351.09 137.52 351.09H137.59L225.73 351.94C225.73 351.94 225.78 351.94 225.8 351.94C227.76 351.94 229.6 351.18 231 349.8C232.41 348.4 233.19 346.54 233.19 344.55V337.98C233.19 337.29 232.63 336.73 231.94 336.73H214.81C210.39 336.73 206.81 333.15 206.81 328.73C206.81 324.31 210.39 320.73 214.81 320.73H239.67C244.89 320.73 249.14 316.48 249.14 311.26V305.93C249.14 304.17 247.75 302.73 246.02 302.62H231.05C226.63 302.62 223.05 299.04 223.05 294.62C223.05 290.2 226.63 286.62 231.05 286.62H245.41C245.55 286.62 245.68 286.6 245.82 286.6H257.59C262.08 286.6 265.73 282.95 265.73 278.46V271.01C265.73 266.52 262.08 262.87 257.59 262.87H244.39C243.88 262.87 243.38 262.82 242.89 262.72C242.4 262.81 241.9 262.87 241.39 262.87H223.32C218.9 262.87 215.32 259.29 215.32 254.87C215.32 250.45 218.9 246.87 223.32 246.87H241.39C241.9 246.87 242.4 246.92 242.89 247.02C243.38 246.93 243.88 246.87 244.39 246.87C246.71 246.87 248.6 244.98 248.6 242.66V232.21C248.6 224.49 242.32 218.21 234.6 218.21H159.25C157.49 218.21 155.77 218.23 154.07 218.26L151.17 218.42C151.02 218.42 150.86 218.43 150.71 218.43M215.31 0C214.65 0 213.98 0.02 213.31 0.06L102.11 6.35C82.63 7.45 67.68 24.2 68.78 43.68L75.07 154.88C75.6 164.32 79.78 172.98 86.83 179.28C93.32 185.08 101.69 188.27 110.38 188.27C111.05 188.27 111.73 188.25 112.4 188.21L140.37 186.63L141.23 201.83C123.39 203.01 107.27 205.94 94.53 210.3C89.89 211.89 85.73 213.66 82.12 215.56C80.35 205.01 71.27 197.24 60.42 197.24H22.01C9.88 197.24 0 207.11 0 219.25V346.97C0 359.1 9.87 368.98 22.01 368.98H60.43C71.19 368.98 80.19 361.35 82.07 350.95C90.36 357.77 101.33 362.68 114.71 365.57C125.99 368.01 135.35 368.13 137.12 368.13C137.3 368.13 137.43 368.13 137.53 368.13L225.57 368.98H225.69H225.81C232.28 368.98 238.37 366.47 242.97 361.92C247.63 357.3 250.2 351.15 250.2 344.59V338.02C250.2 337.23 250.15 336.44 250.05 335.66C259.71 331.53 266.15 321.84 266.15 311.3V305.97C266.15 304.72 266.04 303.48 265.81 302.26C275.82 298.78 282.73 289.14 282.73 278.5V271.05C282.73 260.08 275.55 250.35 265.15 247.07C265.45 245.64 265.6 244.17 265.6 242.7V232.25C265.6 215.16 251.7 201.25 234.6 201.25H196.62L195.62 183.52L223.59 181.94C233.03 181.41 241.69 177.23 247.99 170.18C254.29 163.13 257.46 154.05 256.93 144.61L250.64 33.41C250.11 23.97 245.93 15.31 238.88 9.01C232.39 3.19 224.02 0 215.31 0ZM110.38 170.25C106.11 170.25 102 168.68 98.81 165.83C95.35 162.74 93.29 158.48 93.03 153.84L86.74 42.64C86.48 38 88.04 33.54 91.13 30.08C94.22 26.62 98.48 24.56 103.12 24.3L214.32 18.01C214.66 17.99 215 17.98 215.33 17.98C219.59 17.98 223.69 19.55 226.88 22.4C230.34 25.49 232.4 29.75 232.66 34.39L238.95 145.59C239.21 150.23 237.65 154.69 234.56 158.15C231.47 161.61 227.21 163.67 222.57 163.93L185.61 166.02C183.21 166.16 181.01 167.22 179.41 169.01C177.81 170.8 177 173.11 177.14 175.51L178.52 199.85L159.2 200.94L157.82 176.6C157.55 171.84 153.61 168.11 148.84 168.11C148.67 168.11 148.5 168.11 148.33 168.12L111.37 170.21C111.04 170.23 110.71 170.24 110.38 170.24V170.25ZM22.01 350.95C19.8 350.95 18 349.15 18 346.94V219.22C18 217.01 19.8 215.21 22.01 215.21H60.43C62.64 215.21 64.44 217.01 64.44 219.22V346.94C64.44 349.15 62.64 350.95 60.43 350.95H22.01ZM150.72 219.45C150.89 219.45 151.06 219.45 151.24 219.44L154.14 219.28C155.84 219.25 157.57 219.23 159.26 219.23H234.61C241.78 219.23 247.61 225.06 247.61 232.23V242.68C247.61 244.45 246.17 245.89 244.4 245.89C243.91 245.89 243.41 245.93 242.9 246.02C242.39 245.93 241.89 245.89 241.4 245.89H223.33C218.37 245.89 214.33 249.93 214.33 254.89C214.33 259.85 218.37 263.89 223.33 263.89H241.4C241.89 263.89 242.39 263.85 242.9 263.76C243.41 263.85 243.91 263.89 244.4 263.89H257.6C261.54 263.89 264.74 267.09 264.74 271.03V278.48C264.74 282.42 261.54 285.62 257.6 285.62H245.83C245.72 285.62 245.6 285.62 245.49 285.63H245.39H231.06C226.1 285.63 222.06 289.67 222.06 294.63C222.06 299.59 226.1 303.63 231.06 303.63H245.99C247.2 303.72 248.15 304.73 248.15 305.94V311.27C248.15 315.94 244.35 319.74 239.68 319.74H214.82C209.86 319.74 205.82 323.78 205.82 328.74C205.82 333.7 209.86 337.74 214.82 337.74H231.95C232.09 337.74 232.2 337.85 232.2 337.99V344.56C232.2 346.28 231.53 347.89 230.31 349.1C229.1 350.29 227.51 350.95 225.81 350.95H225.79H225.74L137.6 350.1H137.42C137.42 350.1 137.36 350.1 137.32 350.1C134.13 350.07 105.77 349.38 91.17 334.93C85.29 329.1 82.42 321.82 82.42 312.66C82.42 286.82 82.56 267.21 82.64 257.82C82.66 255.47 82.61 252.46 82.55 248.98V248.88C82.49 245.73 82.42 241.8 82.42 238.24C82.42 236.93 86.36 232.58 98.07 228.17C107.39 224.66 123.91 220.29 149.72 219.4C150.09 219.44 150.4 219.46 150.71 219.46L150.72 219.45Z" fill="#F74A53"></path>
<path d="M308.77 132.619L285.37 123.369C281.26 121.749 276.61 123.759 274.99 127.869C273.37 131.979 275.38 136.629 279.49 138.249L302.89 147.499C303.86 147.879 304.85 148.059 305.83 148.059C309.02 148.059 312.03 146.139 313.27 142.999C314.89 138.889 312.88 134.239 308.77 132.619Z" fill="#F74A53"></path>
<path d="M277.711 84.3592C278.081 88.5192 281.571 91.6392 285.671 91.6392C285.911 91.6392 286.151 91.6292 286.401 91.6092L306.471 89.7992C310.871 89.3992 314.121 85.5192 313.721 81.1192C313.321 76.7192 309.451 73.4692 305.041 73.8692L284.971 75.6792C280.571 76.0792 277.321 79.9592 277.721 84.3592H277.711Z" fill="#F74A53"></path>
<path d="M285.742 21.1408L271.292 29.4508C267.462 31.6508 266.142 36.5408 268.342 40.3708C269.822 42.9408 272.512 44.3808 275.282 44.3808C276.632 44.3808 278.002 44.0408 279.262 43.3108L293.712 35.0008C297.542 32.8008 298.862 27.9108 296.662 24.0808C294.462 20.2508 289.572 18.9308 285.742 21.1308V21.1408Z" fill="#F74A53"></path>
<path d="M21.4613 173.749C23.0013 176.049 25.5313 177.299 28.1113 177.299C29.6413 177.299 31.1913 176.859 32.5613 175.939L53.4613 161.929C57.1313 159.469 58.1113 154.499 55.6513 150.829C53.1913 147.159 48.2213 146.179 44.5513 148.639L23.6513 162.649C19.9813 165.109 19.0013 170.079 21.4613 173.749Z" fill="#F74A53"></path>
<path d="M6.72889 112.091C7.23889 116.141 10.6789 119.101 14.6589 119.101C14.9889 119.101 15.3289 119.081 15.6589 119.041L35.6589 116.541C40.0389 115.991 43.1489 111.991 42.6089 107.611C42.0589 103.231 38.0589 100.121 33.6789 100.661L13.6789 103.161C9.29889 103.711 6.18889 107.711 6.72889 112.091Z" fill="#F74A53"></path>
<path d="M38.3516 53.87L22.4716 48.82C18.2616 47.48 13.7616 49.81 12.4216 54.02C11.0816 58.23 13.4116 62.73 17.6216 64.07L33.5016 69.12C34.3116 69.38 35.1216 69.5 35.9316 69.5C39.3216 69.5 42.4716 67.33 43.5516 63.92C44.8916 59.71 42.5616 55.21 38.3516 53.87Z" fill="#F74A53"></path>
</g>
<defs>
<clipPath id="svg593334405_12969_clip0_1130_3271">
<rect width="313.83" height="368.95" fill="white"></rect>
</clipPath>
</defs>
</svg>