<svg xmlns="http://www.w3.org/2000/svg" xml:space="preserve" id="Layer_1" x="0" y="0" version="1.1" viewBox="0 0 32 32"><style>.st0{fill:#f74a53}.st1{fill:#84131e}</style><path d="M10.4 27.4c-.2 0-.3.1-.3.3v2l.6.3v-2.3c0-.1-.1-.3-.3-.3zm1.7 0H12c-.3 0-.5.2-.5.5v2.4c.4.1.7.2 1.1.3v-2.7c-.1-.3-.3-.5-.5-.5zm1.6 0c-.3 0-.5.2-.5.5v2.9c.3.1.6.1 1 .1v-3.1c0-.2-.2-.4-.5-.4zm1.7 0c-.3 0-.5.2-.5.5V31h1v-3.1c0-.3-.2-.5-.5-.5z" class="st0"/><path d="M24.6 24.7s1.3-.4 2.2-.7c.2-.1.4-.1.5-.2.4-.2.8-.6 1-1l.3-.5c.2-.5.2-1-.1-1.4l-.8-1.2c-.1-.1-.1-.2-.1-.3-.2-1.1-1.3-6.7-1.5-7.4-.1-.6-.1-1-.1-1.5.2-1.6.8-2.8 1.2-3.4.2-.2.6-.3.8-.1h.1C25.3 3.4 20.9 1 16 1S6.8 3.3 4.1 6.9c-.2.5-.3 1-.4 1.7 0 2.2.3 7.8.3 7.8v.2c0 .8-.1 1.5-.3 2.3l-.2.8c-.1.3 0 .7.2 1l.8 1c.2.2.5.3.8.3l6.5-1.8c.3-.1.6 0 .9.1l.7.4c.2.1.5.1.6-.1l1.1-1.5c.1-.2.4-.2.5 0l.4.5.3-.5c.1-.2.4-.2.5 0l1.2 2.1c.3.6.4 1.2.1 1.8l-.3.7c-.2.5-.9.7-1.3.3l-.2-.3c-.1-.1-.2-.1-.3 0-.2.2-.6.6-1.3.6 0 0-.1 0-.1.3v2.3c0 .1.1.2.2.1s.3-.1.6-.1h.1c.5 0 .9.5.9 1V31c2-.1 4-.5 5.7-1.3 0-.5.1-1.2.1-2.1.2-2.4 2.4-2.9 2.4-2.9zM5 15.2c-.1.1-.2.1-.2 0 0-.9 0-2.7.7-4.3 0 0 .2-.4.1-1-.1-.4-.2-.7-.3-1 0-.1.1-.1.1 0l.3.6s.3.5.3 1.1c0 .7-.2 2.2-.5 3.1-.1.6-.4 1.1-.5 1.5zm9 1.6c0 .1 0 .3-.1.4l-.7.8-.1.2c-.1.2-.3.3-.4.5-.5.4-1.7 1-3.8 1.1-.3 0-.5 0-.8-.1-.4-.1-.9-.3-1.3-.5-.2-.1-.4-.3-.6-.4-.6-.5-1-1.3-.8-2 .2-.6.5-1.3.9-1.7 0 0 .4-.8 3.7-1h.6c.9 0 1.7.3 2.3.9l.8.7c.1.1.2.3.2.4l.1.7zm4.9 1.9c-.8-1.1-1.2-1.7-1-2.3 0 0 .5-1.6 2.5-2.2 0 0 1.9-.2 4 .3 0 0 1.3.3 1.6 1.4.3 1.1.4 1.8.4 1.8s.1.8-.5 1.3-1.1 1.1-2.5 1c-1.5-.2-3.6-.2-4.5-1.3z" class="st0"/><path d="M13.8 15.7 13 15c-.6-.6-1.5-.9-2.3-.9h-.6c-3.2.2-3.7 1-3.7 1-.4.4-.7 1.1-.9 1.7-.2.8.2 1.6.8 2 .2.2.4.3.6.4.4.2.9.4 1.3.5.3.1.5.1.8.1 2-.1 3.2-.7 3.8-1.1.2-.1.3-.3.4-.5l.1-.2.6-.9c.1 0 .1-.1.1-.3v-.7c0-.1-.1-.3-.2-.4zM6 10.6c0-.7-.3-1.1-.3-1.1l-.2-.6c0-.1-.2 0-.1 0 .1.3.1.6.2.9.1.6-.1 1-.1 1-.7 1.6-.7 3.4-.7 4.3 0 .1.2.2.2 0 .2-.4.4-.9.6-1.4.3-.9.4-2.4.4-3.1zM31 16c0-3.3-1.1-6.4-2.9-8.9L28 7c-.2-.2-.6-.1-.7.1-.4.6-1 1.7-1.2 3.4 0 .5 0 .9.1 1.4.2.6 1.3 6.3 1.5 7.4 0 .1.1.2.1.3l.8 1.2c.3.4.3 1 .1 1.4l-.3.5c-.2.4-.6.8-1 1-.1.1-.3.1-.5.2-1 .3-2.2.7-2.2.7s-2.3.5-2.4 2.9c-.1.9-.1 1.6-.1 2.1C27.3 27.4 31 22.1 31 16z" class="st1"/><path d="M25.9 18.9c.6-.5.5-1.3.5-1.3s-.1-.6-.4-1.8-1.6-1.4-1.6-1.4c-2.1-.6-4-.3-4-.3-2 .7-2.5 2.2-2.5 2.2-.1.6.2 1.2 1 2.3.8 1.1 2.9 1.1 4.4 1.2 1.5.2 2-.4 2.6-.9zm-10.4 7.8c-.4 0-.5.1-.7.1-.1 0-.2 0-.2-.1v-2.3c0-.3.1-.3.1-.3.8 0 1.1-.3 1.3-.6.1-.1.2-.1.3 0l.2.3c.4.4 1.1.2 1.3-.3l.3-.7c.2-.6.2-1.3-.1-1.8l-1.2-2.1c-.1-.2-.4-.2-.5 0l-.3.5-.4-.5c-.1-.2-.4-.1-.5 0L14 20.5c-.1.2-.4.2-.6.1l-.7-.4c-.3-.1-.6-.2-.9-.1L5.4 22c-.3.1-.6 0-.8-.3l-.8-1c-.2-.3-.3-.6-.2-1l.2-.8c.2-.7.2-1.5.2-2.2v-.2s-.4-5.7-.3-7.8c0-.7.2-1.2.4-1.7-2 2.4-3.1 5.6-3.1 9 0 6.2 3.7 11.5 9.1 13.8v-2c0-.2.1-.3.3-.3.2 0 .3.1.3.3V30c.2.1.5.2.7.2v-2.4c0-.3.2-.5.5-.5h.1c.3 0 .5.2.5.5v2.7c.2.1.5.1.7.1v-2.9c0-.3.2-.5.5-.5s.5.2.5.5v3.1c.2 0 .5 0 .7.1v-3.1c0-.3.2-.5.5-.5h.1c.3 0 .5.2.5.5V31h.5v-3.3c-.1-.5-.5-.9-1-1z" class="st1"/></svg>