<svg width="146" height="80" viewBox="0 0 146 80" fill="none" xmlns="http://www.w3.org/2000/svg" id="svg-1027008422_10285">
<path d="M145.091 44.8182C144.818 44.3636 144.545 44.0909 144.091 43.8182C143.636 43.5455 143.182 43.4545 142.727 43.4545H129C129.636 42.2727 130.091 41.0909 130.636 39.8182C131.818 36.4545 131.455 35.2727 131.091 34.6364C130.909 34.3636 130.636 34.0909 130.364 33.9091C130.091 33.7273 129.727 33.6364 129.364 33.6364C128.545 33.6364 127.182 33.8182 124.273 37.1818C121.364 40.5455 120.364 43 121.091 44.5455C121.364 45 121.636 45.4545 122.091 45.7273C122.545 46 123.091 46.1818 123.545 46.1818H124.818C121.273 52.3636 117.727 56.0909 116.273 57C116.364 55.8182 117.273 52.7273 120 48L120.182 47.7273C120.273 47.5455 120.364 47.4545 120.455 47.2727C120.455 47.1818 120.455 47.0909 120.455 47C120.455 46.8182 120.455 46.6364 120.455 46.5455C120.455 46.3636 120.364 46.1818 120.273 46.0909C120.182 45.9091 120 45.8182 119.909 45.7273C119.727 45.6364 119.636 45.5455 119.455 45.5455C119.273 45.5455 119.091 45.5455 118.909 45.5455C118.727 45.6364 118.545 45.6364 118.455 45.8182C118.364 45.9091 118.182 46.0909 118.091 46.1818C118 46.3636 117.909 46.5455 117.818 46.6364L117 47.8182C114.545 51.4545 110.818 57 107.273 61.6364C101.636 68.9091 99.5454 69.4546 99.0909 69.4546H98.9091C98.9091 69.4546 97.9091 68.0909 101.091 61C102.818 57 104.909 53.2727 104.909 53.2727L126.818 15.7273C126.909 15.5455 127 15.4545 127 15.2727C127 15.0909 127 14.9091 127 14.7273C127 14.5455 126.909 14.3636 126.818 14.2727C126.727 14.0909 126.545 14 126.455 13.9091C126.273 13.8182 126.182 13.7273 126 13.7273C125.818 13.7273 125.636 13.7273 125.455 13.7273C125.273 13.8182 125.091 13.8182 125 14C124.909 14.0909 124.727 14.2727 124.636 14.3636L112.545 35.1818C112.273 34.7273 111.909 34.4545 111.455 34.1818C111 33.9091 110.455 33.8182 109.909 33.8182C106.364 33.8182 100.909 41.0909 98.0909 46C98 46.1818 97.9091 46.3636 97.8182 46.5455C94.1818 52.5455 89.9091 56.5455 88.3636 56.8182C88.1818 55.8182 88.9091 52.7273 91.5454 48C91.7273 47.7273 91.8182 47.5455 91.9091 47.3636C92 47.1818 92 47 92.0909 46.8182C92.0909 46.6364 92.0909 46.4545 92.0909 46.2727C92 45.9091 91.8182 45.6364 91.4545 45.4545C91.1818 45.2727 90.8182 45.2727 90.4545 45.3636C90.0909 45.4545 89.8182 45.6364 89.6363 45.9091C89.5454 46.0909 89.4545 46.2727 89.2727 46.4545C85.4545 52.9091 81.5454 56.3636 80.2727 56.7273C80.0909 55.7273 80.8182 52.2727 83.8182 47.1818C87.9091 40.0909 92.1818 36.3636 93.3636 36.3636C93.7273 36.3636 93.8182 36.5455 93.8182 36.5455C94.0909 36.9091 94.0909 38.3636 92.4545 41.0909C92.3636 41.2727 92.2727 41.3636 92.2727 41.5455C92.2727 41.7273 92.2727 41.9091 92.2727 42.0909C92.2727 42.2727 92.3636 42.4545 92.5454 42.5455C92.6364 42.6364 92.8182 42.8182 92.9091 42.9091C93.0909 43 93.1818 43.0909 93.3636 43.0909C93.5454 43.0909 93.7273 43.0909 93.9091 43.0909C94.0909 43 94.2727 43 94.3636 42.8182C94.4545 42.7273 94.6363 42.5455 94.7273 42.4545C96.4545 39.3636 97 36.9091 96.0909 35.2727C95.8182 34.8182 95.4545 34.4545 94.9091 34.1818C94.4545 33.9091 93.9091 33.8182 93.3636 33.8182C90.4545 33.8182 86.0909 38.9091 83.1818 43.4545C75.4545 51.4545 71.0909 55.3636 69.5454 56.5455C70.0909 54.8182 70.8182 53.0909 71.7273 51.5455L79.5454 38C79.8182 37.6364 79.9091 37.0909 79.9091 36.6364C79.9091 36.1818 79.8182 35.7273 79.5454 35.2727C79.2727 34.8182 79 34.5455 78.5454 34.2727C78.1818 34 77.6364 33.9091 77.1818 33.9091H74.9091C74.6364 33.9091 74.3636 33.9091 74.0909 33.8182L82.8182 21.3636C83 21 83.1818 20.6364 83.0909 20.2727C83.0909 19.9091 83 19.5455 82.7273 19.1818C82.5454 18.9091 82.1818 18.6364 81.8182 18.4545C81.4545 18.2727 81.0909 18.2727 80.7273 18.3636C78.6364 18.8182 76.6364 19.7273 74.9091 21C73.1818 22.2727 71.7273 23.9091 70.6364 25.7273C70 26.8182 69.4545 28.0909 69.1818 29.3636C69 30.1818 69 31.0909 69.1818 32C69.3636 32.8182 69.7273 33.6364 70.2727 34.3636L70.4545 34.5455L49.6364 64.0909C48.4545 65.8182 47 67.4545 45.4545 68.8182C46.0909 66.9091 46.9091 65.0909 47.8182 63.3636L65.9091 30.0909C66.1818 29.5455 66.3636 29 66.3636 28.4545C66.3636 27.8182 66.1818 27.2727 65.9091 26.7273C65.6364 26.1818 65.1818 25.8182 64.7273 25.4545C64.1818 25.1818 63.6364 25 63 25H60.9091C60.3636 25 59.7273 24.9091 59.1818 24.7273L71 4.09091C71.2727 3.63636 71.3636 3.18182 71.2727 2.72727C71.2727 2.27273 71 1.81818 70.7273 1.36364C70.4545 1 70.0909 0.636364 69.6364 0.454545C69.1818 0.272727 68.7273 0.272727 68.2727 0.363636C65.4545 1 60.0909 3 55.7273 10.5455C53.6364 13.7273 52.7273 17.4545 53.0909 21.1818C53.3636 22.9091 54.1818 24.5455 55.5454 25.6364L52.8182 30.3636C49.4545 36.4545 46.0909 40.2727 42.2727 42.1818C43.5454 39.3636 44.4545 36.2727 43.5454 34.7273C43.3636 34.4545 43.0909 34.1818 42.8182 34C42.5454 33.8182 42.1818 33.7273 41.8182 33.7273C41 33.7273 39.6364 34 36.8182 37.1818C33.9091 40.5455 32.9091 43 33.6364 44.5455C33.9091 45 34.1818 45.4545 34.6364 45.7273C35 45.9091 35.3636 46.0909 35.8182 46.0909C36 46.1818 36.0909 46.1818 36.2727 46.1818C36.6364 46.1818 37 46.1818 37.3636 46.1818C33.8182 52.3636 30.2727 56.0909 28.8182 57C28.9091 55.7273 29.9091 52.5455 32.8182 47.4545C33.0909 47.0909 33.1818 46.6364 33.1818 46.1818C33.1818 45.7273 33.0909 45.2727 32.9091 44.9091C32.7273 44.5455 32.3636 44.1818 32 43.9091C31.6364 43.6364 31.1818 43.5455 30.7273 43.5455H24.6364L47.3636 4.18182C47.6364 3.72727 47.9091 3.18182 47.9091 2.63636C47.9091 2.09091 47.9091 1.54545 47.6364 1C47.4545 0.636364 47.1818 0.454545 46.8182 0.272727C46.4545 0.090909 46.1818 0 45.8182 0H1.27273C1.09091 0 1 2.03198e-08 0.818182 0.0909091C0.636364 0.181818 0.545454 0.272727 0.363636 0.363636C0.181818 0.454545 0.181818 0.636364 0.0909091 0.818182C2.03198e-08 1 0 1.09091 0 1.27273C0 1.45455 2.03198e-08 1.63636 0.0909091 1.81818C0.181818 2 0.272727 2.09091 0.363636 2.27273C0.454545 2.36364 0.636364 2.45455 0.818182 2.54545C1 2.63636 1.18182 2.63636 1.27273 2.63636H45.1818L45 2.90909L2 78C1.81818 78.2727 1.81818 78.4545 1.81818 78.7273C1.81818 79 1.90909 79.1818 2 79.3636C2.09091 79.5455 2.27273 79.7273 2.45455 79.8182C2.63636 79.9091 2.90909 80 3.09091 80C3.36364 80 3.54545 79.9091 3.72727 79.8182C3.90909 79.7273 4.09091 79.5455 4.18182 79.3636L23.2727 46.1818H30.7273C29.3636 48.6364 25.1818 56.2727 26.7273 58.9091C26.9091 59.1818 27.1818 59.4545 27.4545 59.6364C27.7273 59.8182 28.0909 59.9091 28.4545 59.9091C31.8182 59.9091 37.3636 51.8182 39.7273 47.4545C40 47 40.3636 46.4545 40.7273 45.6364C44.9091 44.4545 49.9091 41.0909 55.1818 31.6364L57.9091 27C58.9091 27.3636 59.9091 27.5455 60.9091 27.5455H63C63.0909 27.5455 63.2727 27.5455 63.3636 27.6364C63.4545 27.7273 63.5454 27.8182 63.6364 27.9091C63.7273 28 63.7273 28.1818 63.7273 28.2727C63.7273 28.3636 63.7273 28.5455 63.6364 28.6364L45.5454 62.1818C42.9091 67.0909 41.6364 70.6364 43.5454 71.8182C43.8182 72 44.1818 72.0909 44.4545 72.0909C45.8182 72.0909 48.0909 70.6364 51.7273 65.5455L72.2727 36C73 36.3636 73.8182 36.4545 74.6364 36.4545H77L69.0909 50.1818C67.7273 52.4545 65.6364 56.5455 66.7273 58.3636C66.9091 58.7273 67.1818 59 67.5454 59.1818C67.9091 59.3636 68.2727 59.4545 68.6364 59.4545C69.3636 59.4545 70.4545 59.4545 78.4545 51.5455C77.4545 54.0909 76.8182 56.8182 77.6364 58.3636C77.8182 58.7273 78.0909 59 78.4545 59.1818C78.8182 59.3636 79.1818 59.4545 79.6364 59.4545C81.2727 59.4545 83.3636 57.9091 85.3636 55.7273C85.2727 56.7273 85.3636 57.6364 85.7273 58.2727C85.9091 58.6364 86.1818 58.9091 86.5454 59.0909C86.9091 59.2727 87.2727 59.3636 87.7273 59.3636C89.3636 59.3636 91.6364 57.7273 93.9091 55.4545C93.7273 56.5455 93.8182 57.5455 94.2727 58.2727C94.4545 58.6364 94.7273 58.9091 95.0909 59.0909C95.4545 59.2727 95.8182 59.3636 96.2727 59.3636C97.0909 59.3636 98.0909 58.9091 99.0909 58.1818C96.9091 62.8182 94.9091 68.2727 96.2727 70.6364C96.5454 71.0909 96.9091 71.4546 97.3636 71.6364C97.8182 71.9091 98.2727 72 98.8182 72C102.091 72 106.909 66.4545 113.545 57.0909C113.545 57.9091 113.727 58.4545 113.909 58.8182C114.091 59.0909 114.364 59.3636 114.636 59.5455C114.909 59.7273 115.273 59.8182 115.636 59.8182C118.909 59.8182 124.545 51.7273 127 47.2727L127.727 46H142.727C142.727 46 142.727 46 142.818 46C142.818 46 142.818 46 142.818 46.0909C142.818 46.0909 142.818 46.0909 142.818 46.1818L142.091 47.5455C142 47.7273 141.909 47.8182 141.909 48C141.909 48.1818 141.909 48.3636 141.909 48.5455C141.909 48.7273 142 48.9091 142.091 49C142.182 49.1818 142.364 49.2727 142.455 49.3636C142.636 49.4545 142.727 49.5455 142.909 49.5455C143.091 49.5455 143.273 49.5455 143.455 49.5455C143.636 49.4545 143.818 49.4545 143.909 49.2727C144 49.1818 144.182 49 144.273 48.9091L145 47.5455C145.273 47.0909 145.364 46.6364 145.364 46.1818C145.455 45.7273 145.364 45.2727 145.091 44.8182ZM38.9091 39C39.6364 38.0909 40.5454 37.2727 41.5454 36.5455C41.4545 37.5455 40.8182 39.9091 39 43.3636C38.1818 43.5455 37.3636 43.6364 36.5454 43.6364C36.4545 43.6364 36.3636 43.5455 36.2727 43.5455H36.0909C36.1818 43.3636 36.2727 42.1818 38.9091 39ZM57.0909 23.3636C56.4545 22.6364 56 21.8182 55.9091 20.8182C55.6364 17.6364 56.4545 14.5455 58.1818 11.9091C61.9091 5.54545 66.2727 3.63636 68.7273 3.09091L57.0909 23.3636ZM71.7273 32.2727C71.3636 31.5455 71.1818 30.7273 71.3636 30C71.6364 29 72 28 72.5454 27.0909C74 24.4545 76.3636 22.4545 79.1818 21.4545L71.7273 32.2727ZM99.5454 48.1818C99.7273 47.9091 99.9091 47.6364 100 47.3636C100 47.2727 100.091 47.1818 100.091 47.0909C104.182 40.0909 108.364 36.4545 109.545 36.4545C109.818 36.4545 109.909 36.6364 109.909 36.6364C110.182 37.0909 110.182 38.4545 108.636 41.1818V41.2727L105.909 45.9091C105.909 46 105.818 46 105.818 46.0909C101.909 52.8182 97.8182 56.5455 96.4545 56.9091C96.3636 55.9091 97 52.8182 99.5454 48.1818ZM126.182 43.5455H123.364C123.364 43.2727 123.455 42.1818 126.182 39C126.909 38.0909 127.818 37.2727 128.818 36.5455C128.273 39 127.455 41.3636 126.182 43.5455Z" fill="#021120"></path>
<path d="M87.9176 67.542H59.554C59.1903 67.542 58.9176 67.7238 58.6449 67.9056C58.3722 68.0874 58.2812 68.4511 58.2812 68.8147C58.2812 69.1784 58.4631 69.4511 58.6449 69.7238C58.9176 69.9965 59.1903 70.0874 59.554 70.0874H88.0085C88.3722 70.0874 88.6449 69.9056 88.9176 69.7238C89.1903 69.4511 89.2812 69.1784 89.2812 68.8147C89.2812 68.4511 89.0994 68.1784 88.9176 67.9056C88.7358 67.6329 88.2812 67.542 87.9176 67.542Z" fill="#021120"></path>
</svg>