<svg width="24" height="24" fill="none" xmlns="http://www.w3.org/2000/svg" id="svg365377998_1025"><g clip-path="url(#svg365377998_1025_a)" fill="#F5F0F0"><path d="M12 16a4 4 0 1 0 0-8 4 4 0 0 0 0 8Z"></path><path d="M23.91 7.05c-.06-1.28-.26-2.15-.56-2.92a5.92 5.92 0 0 0-1.38-2.12A5.665 5.665 0 0 0 19.85.63c-.76-.3-1.64-.5-2.91-.56C15.66.01 15.25 0 11.99 0 8.73 0 8.32.01 7.04.07 5.76.13 4.89.33 4.13.63c-.79.31-1.46.72-2.12 1.38C1.35 2.67.93 3.35.63 4.13c-.3.76-.5 1.64-.56 2.92C.01 8.33 0 8.74 0 12c0 3.26.01 3.67.07 4.95.06 1.28.26 2.15.56 2.92.31.79.72 1.46 1.38 2.12a5.79 5.79 0 0 0 2.12 1.38c.76.3 1.64.5 2.91.56 1.28.06 1.69.07 4.95.07 3.26 0 3.67-.01 4.95-.07 1.28-.06 2.15-.26 2.91-.56a5.92 5.92 0 0 0 2.12-1.38c.66-.66 1.08-1.34 1.38-2.12.3-.76.5-1.64.56-2.92.06-1.28.07-1.69.07-4.95 0-3.26-.01-3.67-.07-4.95ZM12 18.17c-3.4 0-6.16-2.76-6.16-6.17S8.6 5.83 12 5.83c3.4 0 6.16 2.76 6.16 6.17S15.4 18.17 12 18.17Zm6.4-11.14a1.44 1.44 0 1 1 0-2.88 1.44 1.44 0 0 1 0 2.88Z"></path></g><defs><clipPath id="svg365377998_1025_a"><path fill="#fff" d="M0 0h23.99v24H0z"></path></clipPath></defs></svg>