<svg width="253" height="315" viewBox="0 0 253 315" fill="none" xmlns="http://www.w3.org/2000/svg" id="svg-1900275834_1973">
<g clip-path="url(#svg-1900275834_1973_clip0_1130_3267)">
<path d="M204.18 314.789C203.07 314.789 201.96 314.739 200.84 314.649L36.5203 300.939C25.9203 300.059 16.3003 295.099 9.43035 286.979C2.56035 278.859 -0.739652 268.549 0.150348 257.949L8.26035 160.759C10.0903 138.879 29.3803 122.549 51.2603 124.389L215.58 138.099C237.46 139.919 253.78 159.209 251.95 181.089L243.84 278.279C242.11 299.039 224.66 314.789 204.19 314.789H204.18ZM47.9203 147.249C39.2703 147.249 31.9003 153.899 31.1703 162.669L23.0603 259.859C22.6903 264.339 24.0803 268.689 26.9803 272.119C29.8803 275.549 33.9503 277.639 38.4203 278.019L202.74 291.729C211.99 292.489 220.13 285.609 220.9 276.359L229.01 179.169C229.78 169.929 222.89 161.779 213.64 161.009L49.3203 147.299C48.8503 147.259 48.3803 147.239 47.9103 147.239L47.9203 147.249Z" fill="#F74A53"></path>
<path d="M209.339 156.62C209.019 156.62 208.699 156.61 208.369 156.58C202.039 156.05 197.339 150.49 197.869 144.16L203.139 81.0205C205.569 51.8605 183.829 26.1705 154.679 23.7305L148.149 23.1905C134.089 22.0105 120.379 26.4305 109.519 35.6205C98.6592 44.8105 92.0392 57.6005 90.8592 71.6605C90.3292 77.9905 84.7892 82.7105 78.4392 82.1605C72.1092 81.6305 67.4092 76.0705 67.9392 69.7405C69.6192 49.5705 79.1092 31.2105 94.6592 18.0605C110.209 4.91047 129.869 -1.41953 150.049 0.270465L156.579 0.810465C198.369 4.30047 229.539 41.1305 226.049 82.9305L220.779 146.07C220.279 152.07 215.249 156.61 209.329 156.61L209.339 156.62Z" fill="#F74A53"></path>
<path d="M124.608 252.83C124.288 252.83 123.968 252.82 123.638 252.79C117.308 252.26 112.608 246.7 113.138 240.37L116.788 196.57C117.318 190.24 122.868 185.54 129.208 186.07C135.538 186.6 140.238 192.16 139.708 198.49L136.058 242.29C135.558 248.29 130.528 252.83 124.608 252.83Z" fill="#F74A53"></path>
</g>
<defs>
<clipPath id="svg-1900275834_1973_clip0_1130_3267">
<rect width="252.08" height="314.79" fill="white"></rect>
</clipPath>
</defs>
</svg>