<svg xmlns="http://www.w3.org/2000/svg" viewBox="0 0 24 22.89" id="svg-1313682825_665"><path d="M23.61 8.51a5.72 5.72 0 0 0-.53-1.24c-.42-.75-1.53-1.72-2.4-2.28-1.66-1.09-3.52-2.25-5.61-3.63L13.7.47c-1.07-.62-2.33-.64-3.39 0L3.53 4.86c-.9.53-2.15 1.6-2.61 2.41-.22.39-.4.8-.53 1.24-.27.9-.39 1.9-.39 3.01v4.72c0 5.47 1.17 6.64 6.64 6.64h10.72c5.47 0 6.64-1.17 6.64-6.64v-4.72c0-1.11-.12-2.12-.39-3.01Zm-4.05-1.86c.72.45 1.57 1.24 1.77 1.6.11.19.18.39.25.59l-8.54 6.81c-.29.21-.51.34-.82.34h-.47c-.31 0-.52-.13-.82-.34l-8.52-6.8c.08-.2.15-.4.25-.59.21-.38 1.14-1.24 1.88-1.67l.04-.02.04-.03 6.72-4.36c.43-.28.97-.2 1.35.03l1.32.85c2.18 1.34 3.9 2.45 5.55 3.59Z" style="fill:#f5f0f0"></path></svg>