<svg width="349" height="355" viewBox="0 0 349 355" fill="none" xmlns="http://www.w3.org/2000/svg" id="svg-1290378374_6540">
<g clipPath="url(#svg-1290378374_6540_clip0_1129_3261)">
<path d="M298.04 188.59C295.25 187.35 293.38 184.69 293.17 181.65L293.07 180.26C292.46 171.27 291.03 150.21 280.64 129.85C278.11 124.89 275.18 120.23 271.91 115.96C272.57 113.82 272.97 111.57 273.09 109.24C275.86 108.34 278.79 108.34 281.42 108.33H282.05C292.99 108.33 307.79 103.73 316.21 93.44C321.86 86.53 323.89 78.18 322.09 69.3C319.1 54.56 303.82 47.55 293.71 42.91L293.55 42.84C296.26 31.6 293.2 20.18 285.43 13.18C281.83 9.94 275.5 6.07 265.78 6.07C258.1 6.07 249.5 8.51 240.24 13.34C239.3 13.83 238.62 14.05 238.05 14.05C236.53 14.05 234.2 12.39 230.44 9.32C225.59 5.39 218.98 0 210.01 0C207.5 0 204.93 0.43 202.38 1.29C183.38 7.66 176.93 31.41 185.13 64.8C185.62 66.78 186.17 68.84 186.78 70.94C184.32 73.49 182.03 76.33 179.97 79.4C154.44 79.89 129.99 86.64 107.25 99.47C76.08 117.06 48.28 145.93 24.63 185.29C8.52 206.19 0 228.29 0 249.21C0 274.57 9.16 299.05 25.79 318.15C42.26 337.06 64.92 349.48 89.61 353.11L90.09 353.18L90.3 353.21H90.51L242.47 354.24C303.92 354.24 348.51 314.2 348.51 259.03C348.51 240.81 343.71 226.05 333.83 213.89C325.72 203.91 314.35 195.87 298.04 188.6V188.59ZM303.73 313.68C288.04 326.94 266.32 334.24 242.55 334.24L91.85 333.22C72.15 330.16 54.05 320.14 40.87 305.01C27.41 289.55 19.99 269.73 19.99 249.2C19.99 228.67 31.3 209.28 40.79 197.07L41.05 196.73L41.16 196.59L41.25 196.43L41.47 196.07C60.49 164.31 82.27 139.96 106.22 123.7C129.97 107.57 155.88 99.39 183.24 99.39C191.86 99.39 200.73 100.21 209.62 101.83C234.7 106.39 252.64 118.92 262.92 139.05C271.34 155.54 272.53 173.15 273.11 181.61L273.21 183.06C273.96 193.48 280.35 202.59 289.89 206.85C304.08 213.18 313.54 220 319.66 228.32C325.7 236.53 328.52 246.29 328.52 259.02C328.52 281.07 319.95 299.97 303.74 313.67L303.73 313.68ZM283.54 60.25C284.12 60.52 284.73 60.8 285.36 61.09C290.6 63.5 301.51 68.5 302.48 73.28C303.07 76.2 302.51 78.59 300.72 80.78C296.71 85.69 288.11 88.33 282.05 88.33H281.48H281.41H280.91C278.24 88.33 273.59 88.33 268.4 89.75C267.98 88.93 267.54 88.12 267.09 87.34C263.05 80.36 257.54 73.99 251.08 68.79C252.76 63.78 254.07 62.03 262.05 58.84C267.17 56.79 269.67 50.96 267.62 45.84C266.09 42.02 262.45 39.55 258.33 39.55C257.06 39.55 255.81 39.79 254.62 40.27C241.94 45.34 236.84 51.02 233.54 58.74C229.68 57.33 225.9 56.46 222.47 56.22C221.48 56.15 220.48 56.11 219.49 56.11C214.3 56.11 209.21 57.08 204.29 59.01C199.56 38.94 201.38 22.73 208.73 20.27C209.17 20.12 209.57 20.05 209.94 20.05C211.6 20.05 213.79 21.6 217.78 24.85C222.29 28.52 229.11 34.08 238.03 34.08C241.81 34.08 245.65 33.08 249.45 31.1C255.72 27.83 261.36 26.11 265.76 26.11C268.48 26.11 270.58 26.77 272.02 28.07C274.72 30.5 275.3 35.53 273.42 40.29C270.47 47.77 274.72 56.18 283.52 60.28L283.54 60.25ZM219.5 76.1C220.01 76.1 220.54 76.12 221.06 76.16C229.65 76.78 241.5 85.08 248.2 94.85C238.1 88.82 226.37 84.56 213.21 82.17C210.7 81.71 208.18 81.31 205.66 80.96C209.33 78.28 214.01 76.11 219.5 76.11V76.1Z" fill="#F74A53"></path>
<path d="M229.541 151.849C225.771 148.769 221.531 145.949 216.921 143.419L217.351 142.879C218.351 141.629 219.291 140.419 220.141 139.299C221.221 137.869 221.891 136.729 222.251 135.699C223.861 131.069 222.721 127.729 221.481 125.749C219.771 123.009 217.231 121.159 213.931 120.259C211.771 119.669 209.791 119.359 208.041 119.359C205.901 119.359 204.021 119.799 202.441 120.669C199.611 122.229 197.541 124.849 196.281 128.449C195.811 129.809 194.941 131.949 193.701 134.809C188.521 133.739 183.381 133.209 178.371 133.209C174.871 133.209 171.361 133.469 167.941 133.999C158.741 135.399 150.581 138.759 143.691 143.979C136.721 149.259 131.651 156.349 128.621 165.059C126.341 171.619 126.331 178.109 128.591 184.349C130.751 190.309 134.271 195.929 139.051 201.039C143.231 205.509 148.431 210.269 154.531 215.189L153.851 216.509C146.611 230.629 139.131 245.209 131.451 259.429C128.151 257.659 125.271 255.509 122.871 253.029C119.981 250.059 117.591 246.129 115.761 241.339C114.111 237.029 112.331 233.279 110.611 230.489C108.681 227.369 106.031 225.329 102.721 224.419C101.221 224.009 99.7608 223.799 98.3808 223.799C96.2508 223.799 94.2608 224.289 92.4508 225.259C89.4708 226.859 87.2708 229.659 85.9008 233.599C83.9708 239.149 84.5908 245.089 87.7508 251.279C90.7108 257.069 95.3308 262.649 101.491 267.849C106.651 272.209 112.411 276.059 118.641 279.319C117.811 280.449 117.151 281.399 116.651 282.149C115.691 283.599 114.951 285.069 114.441 286.529C113.121 290.329 113.271 293.709 114.901 296.569C116.491 299.369 119.101 301.279 122.661 302.259C124.441 302.749 126.131 302.999 127.701 302.999C130.041 302.999 132.161 302.459 134.001 301.389C137.001 299.659 139.181 297.019 140.481 293.549V293.509L140.511 293.469C140.791 292.659 141.521 290.839 142.691 288.059C147.981 289.139 153.281 289.689 158.471 289.689C161.851 289.689 165.271 289.459 168.621 288.999C178.041 287.709 186.481 284.439 193.701 279.299C201.041 274.069 206.331 266.889 209.441 257.969C211.881 250.949 211.891 244.099 209.471 237.599C207.161 231.399 203.531 225.619 198.671 220.409C194.401 215.839 188.991 210.819 182.571 205.489L183.581 203.509C190.121 190.709 196.861 177.499 203.761 164.589C205.921 166.049 207.631 167.529 208.861 169.009C210.801 171.359 212.591 174.019 214.181 176.919C215.761 179.799 216.961 181.659 218.061 182.949C219.481 184.609 221.501 185.809 224.081 186.509C225.831 186.989 227.531 187.239 229.141 187.239C231.051 187.239 232.871 186.899 234.551 186.219C237.871 184.879 240.331 181.979 241.861 177.599C243.351 173.299 242.811 168.759 240.241 164.089C237.911 159.859 234.311 155.739 229.531 151.839L229.541 151.849ZM181.701 240.849C184.181 244.729 184.801 248.319 183.581 251.809C182.081 256.119 179.701 259.359 176.301 261.709C172.811 264.119 168.681 265.649 164.041 266.239C162.291 266.469 160.471 266.579 158.651 266.579C156.681 266.579 154.661 266.449 152.601 266.179C158.311 254.289 164.351 241.959 170.961 228.679C175.741 233.069 179.341 237.149 181.701 240.839V240.849ZM156.281 180.219C153.911 176.399 153.321 172.939 154.471 169.619C155.671 166.169 157.651 163.279 160.511 160.799C163.331 158.349 166.931 156.689 171.201 155.869C172.781 155.559 174.451 155.409 176.161 155.409C178.581 155.409 181.161 155.719 183.841 156.329C178.121 168.279 172.151 180.269 166.321 191.949C161.871 187.739 158.491 183.799 156.271 180.219H156.281Z" fill="#F74A53"></path>
</g>
<defs>
<clipPath id="svg-1290378374_6540_clip0_1129_3261">
<rect width="348.51" height="354.24" fill="white"></rect>
</clipPath>
</defs>
</svg>