<svg width="346" height="346" viewBox="0 0 346 346" fill="none" xmlns="http://www.w3.org/2000/svg" id="svg1552665812_4082">
<g clip-path="url(#svg1552665812_4082_clip0_1129_3235)">
<path d="M325.22 0.000234375C324.98 0.000234375 324.75 0.000234375 324.51 0.0102344C295.88 0.960234 271.47 6.30023 247.67 16.8302C218.38 29.7902 189.27 50.9702 158.66 81.5702C158.48 81.7602 143.74 96.5002 125.59 114.64C118.3 110.02 109.91 107.59 101.17 107.59C88.98 107.59 77.52 112.33 68.92 120.93L4.71997 185.15C-0.720033 190.58 -1.54003 198.85 2.70997 205.25C5.67997 209.73 10.63 212.4 15.93 212.4C17.57 212.4 19.21 212.15 20.79 211.64L62.71 204.3C62.82 204.42 62.93 204.53 63.04 204.64L73.39 214.99L56.87 231.51C49.25 239.13 49.25 251.52 56.87 259.14L86 288.27C89.69 291.96 94.59 293.98 99.81 293.98C105.03 293.98 109.94 291.95 113.62 288.27L130.14 271.75L140.49 282.1C140.59 282.2 140.7 282.31 140.81 282.41L133.47 324.33C131.3 331.17 133.85 338.41 139.87 342.41C142.53 344.18 145.59 345.11 148.72 345.11C152.94 345.11 156.94 343.44 159.97 340.4L224.2 276.17C232.82 267.55 237.56 256.1 237.56 243.91C237.56 235.18 235.13 226.81 230.5 219.53C248.62 201.41 263.37 186.66 263.57 186.47C294.91 155.13 316.33 126.4 329.07 98.6402C340.35 74.0602 345.41 49.9202 345.48 20.3602C345.49 14.8002 343.3 9.60023 339.3 5.72023C335.49 2.02023 330.49 -0.00976562 325.22 -0.00976562V0.000234375ZM110.81 129.43L54.87 185.37L28.09 190.06L83.09 135.06C87.92 130.23 94.35 127.57 101.21 127.57C104.52 127.57 107.79 128.21 110.82 129.43H110.81ZM159.74 290.25L167.49 282.5L167.55 282.45C167.67 282.34 167.8 282.23 167.92 282.11L215.71 234.32C216.93 237.34 217.56 240.6 217.56 243.91C217.56 250.75 214.89 257.19 210.06 262.03L155.06 317.03L159.75 290.25H159.74ZM154.19 267.52L144.28 257.61L178.84 223.05C186.42 215.47 190.59 205.39 190.59 194.67C190.59 183.95 186.42 173.87 178.84 166.29C171.26 158.71 161.18 154.54 150.46 154.54C139.74 154.54 129.66 158.71 122.08 166.29L87.52 200.85L77.59 190.92C97.04 171.46 162.8 105.7 171.78 96.7202L172.8 95.7002C210.76 57.7402 255.5 22.2902 325.16 19.9902C325.23 19.9902 325.29 20.0002 325.37 20.0802C325.47 20.1802 325.47 20.2702 325.47 20.3102C325.36 66.0102 312.39 109.35 249.41 172.33C249.18 172.56 234.86 186.88 217.13 204.6L214.99 206.7L154.18 267.51L154.19 267.52ZM136.23 180.44C140.03 176.64 145.09 174.54 150.47 174.54C155.85 174.54 160.9 176.63 164.7 180.44C168.5 184.24 170.6 189.3 170.6 194.67C170.6 200.04 168.51 205.1 164.7 208.9L99.8 273.8L71.33 245.33L136.22 180.43L136.23 180.44Z" fill="#F74A53"></path>
<path d="M253.451 131.829C253.451 121.109 249.281 111.029 241.701 103.449C234.121 95.8694 224.041 91.6895 213.321 91.6895C202.601 91.6895 192.521 95.8595 184.941 103.439C169.291 119.089 169.291 144.549 184.941 160.189C192.521 167.769 202.601 171.939 213.321 171.939C224.041 171.939 234.121 167.769 241.701 160.189C249.281 152.609 253.461 142.529 253.461 131.809L253.451 131.829ZM233.451 131.829C233.451 137.209 231.361 142.259 227.551 146.059C223.751 149.859 218.691 151.959 213.311 151.959C207.931 151.959 202.881 149.869 199.081 146.059C195.281 142.259 193.191 137.209 193.191 131.829C193.191 126.449 195.281 121.389 199.081 117.599C202.881 113.799 207.941 111.699 213.321 111.699C218.701 111.699 223.751 113.789 227.551 117.599C231.351 121.399 233.451 126.459 233.451 131.829Z" fill="#F74A53"></path>
<path d="M107.55 49.4896C111.73 49.4896 115.12 46.0996 115.12 41.9196C115.12 37.7396 111.73 34.3496 107.55 34.3496C103.37 34.3496 99.9805 37.7396 99.9805 41.9196C99.9805 46.0996 103.37 49.4896 107.55 49.4896Z" fill="#F74A53"></path>
<path d="M103.161 334.401C103.161 329.471 99.1608 325.471 94.2308 325.471C89.3008 325.471 85.3008 329.471 85.3008 334.401C85.3008 339.331 89.3008 343.331 94.2308 343.331C99.1608 343.331 103.161 339.331 103.161 334.401Z" fill="#F74A53"></path>
<path d="M323.48 167.141C316.85 167.141 311.48 172.511 311.48 179.141C311.48 185.771 316.85 191.141 323.48 191.141C330.11 191.141 335.48 185.771 335.48 179.141C335.48 172.511 330.11 167.141 323.48 167.141Z" fill="#F74A53"></path>
</g>
<defs>
<clipPath id="svg1552665812_4082_clip0_1129_3235">
<rect width="345.48" height="345.11" fill="white"></rect>
</clipPath>
</defs>
</svg>