<svg width="25" height="24" viewBox="0 0 25 24" fill="none" xmlns="http://www.w3.org/2000/svg" id="svg1628232716_1813">
<g clipPath="url(#svg1628232716_1813_clip0_241_2085)">
<path d="M17.829 8.02449C19.4367 9.17779 21.4061 9.85637 23.5332 9.85637V5.74859C23.1307 5.74868 22.7292 5.70655 22.3353 5.62281V8.85622C20.2084 8.85622 18.2392 8.17764 16.6311 7.02442V15.4072C16.6311 19.6007 13.2437 22.9999 9.06535 22.9999C7.50631 22.9999 6.05725 22.5269 4.85352 21.7157C6.22738 23.1255 8.14334 24 10.263 24C14.4416 24 17.8292 20.6008 17.8292 16.4071V8.02449H17.829V8.02449ZM19.3068 3.88024C18.4852 2.97944 17.9457 1.81533 17.829 0.528348V0H16.6938C16.9796 1.63575 17.9542 3.03324 19.3068 3.88024ZM7.49632 18.4977C7.03728 17.8937 6.78922 17.1548 6.79033 16.3951C6.79033 14.4771 8.33971 12.922 10.2512 12.922C10.6075 12.922 10.9616 12.9767 11.3011 13.0848V8.88522C10.9043 8.83065 10.5039 8.80748 10.1037 8.81598V12.0847C9.7639 11.9766 9.40963 11.9217 9.0533 11.9221C7.14178 11.9221 5.59249 13.477 5.59249 15.3952C5.59249 16.7515 6.36692 17.9257 7.49632 18.4977Z" fill="#F5F0F0"></path>
<path d="M16.6312 7.02433C18.2393 8.17755 20.2085 8.85613 22.3354 8.85613V5.62273C21.1482 5.36893 20.0971 4.74629 19.3069 3.88024C17.9542 3.03315 16.9796 1.63566 16.6939 0H13.712V16.4069C13.7053 18.3196 12.1586 19.8684 10.2511 19.8684C9.12713 19.8684 8.12856 19.3307 7.49614 18.4977C6.36683 17.9257 5.5924 16.7514 5.5924 15.3953C5.5924 13.4772 7.14169 11.9221 9.05321 11.9221C9.41945 11.9221 9.77245 11.9794 10.1036 12.0848V8.81606C5.99863 8.90117 2.69727 12.2672 2.69727 16.407C2.69727 18.4736 3.51938 20.347 4.85368 21.7158C6.05742 22.5269 7.50648 23 9.06552 23C13.2439 23 16.6313 19.6006 16.6313 15.4072V7.02433H16.6312Z" fill="#F5F0F0"></path>
</g>
<defs>
<clipPath id="svg1628232716_1813_clip0_241_2085">
<rect width="24" height="24" fill="white" transform="translate(0.5)"></rect>
</clipPath>
</defs>
</svg>