<svg width="24" height="24" viewBox="0 0 24 24" fill="none" xmlns="http://www.w3.org/2000/svg" id="svg787146747_4019">
<g clip-path="url(#svg787146747_4019_clip0_241_1993)">
<path d="M17.329 8.02449C18.9367 9.17779 20.9061 9.85637 23.0332 9.85637V5.74859C22.6307 5.74868 22.2292 5.70655 21.8353 5.62281V8.85622C19.7084 8.85622 17.7392 8.17764 16.1311 7.02442V15.4072C16.1311 19.6007 12.7437 22.9999 8.56535 22.9999C7.00631 22.9999 5.55725 22.5269 4.35352 21.7157C5.72738 23.1255 7.64334 24 9.76302 24C13.9416 24 17.3292 20.6008 17.3292 16.4071V8.02449H17.329V8.02449ZM18.8068 3.88024C17.9852 2.97944 17.4457 1.81533 17.329 0.528348V0H16.1938C16.4796 1.63575 17.4542 3.03324 18.8068 3.88024ZM6.99632 18.4977C6.53728 17.8937 6.28922 17.1548 6.29033 16.3951C6.29033 14.4771 7.83971 12.922 9.75123 12.922C10.1075 12.922 10.4616 12.9767 10.8011 13.0848V8.88522C10.4043 8.83065 10.0039 8.80748 9.60365 8.81598V12.0847C9.2639 11.9766 8.90963 11.9217 8.5533 11.9221C6.64178 11.9221 5.09249 13.477 5.09249 15.3952C5.09249 16.7515 5.86692 17.9257 6.99632 18.4977Z" fill="#F5F0F0"></path>
<path d="M16.1312 7.02433C17.7393 8.17755 19.7085 8.85613 21.8354 8.85613V5.62273C20.6482 5.36893 19.5971 4.74629 18.8069 3.88024C17.4542 3.03315 16.4796 1.63566 16.1939 0H13.212V16.4069C13.2053 18.3196 11.6586 19.8684 9.75114 19.8684C8.62713 19.8684 7.62856 19.3307 6.99614 18.4977C5.86683 17.9257 5.0924 16.7514 5.0924 15.3953C5.0924 13.4772 6.64169 11.9221 8.55321 11.9221C8.91945 11.9221 9.27245 11.9794 9.60357 12.0848V8.81606C5.49863 8.90117 2.19727 12.2672 2.19727 16.407C2.19727 18.4736 3.01938 20.347 4.35368 21.7158C5.55742 22.5269 7.00648 23 8.56552 23C12.7439 23 16.1313 19.6006 16.1313 15.4072V7.02433H16.1312Z" fill="#F5F0F0"></path>
<path d="M17.329 8.02449C18.9367 9.17779 20.9061 9.85637 23.0332 9.85637V5.74859C22.6307 5.74868 22.2292 5.70655 21.8353 5.62281V8.85622C19.7084 8.85622 17.7392 8.17764 16.1311 7.02442V15.4072C16.1311 19.6007 12.7437 22.9999 8.56535 22.9999C7.00631 22.9999 5.55725 22.5269 4.35352 21.7157C5.72738 23.1255 7.64334 24 9.76302 24C13.9416 24 17.3292 20.6008 17.3292 16.4071V8.02449H17.329V8.02449ZM18.8068 3.88024C17.9852 2.97944 17.4457 1.81533 17.329 0.528348V0H16.1938C16.4796 1.63575 17.4542 3.03324 18.8068 3.88024ZM6.99632 18.4977C6.53728 17.8937 6.28922 17.1548 6.29033 16.3951C6.29033 14.4771 7.83971 12.922 9.75123 12.922C10.1075 12.922 10.4616 12.9767 10.8011 13.0848V8.88522C10.4043 8.83065 10.0039 8.80748 9.60365 8.81598V12.0847C9.2639 11.9766 8.90963 11.9217 8.5533 11.9221C6.64178 11.9221 5.09249 13.477 5.09249 15.3952C5.09249 16.7515 5.86692 17.9257 6.99632 18.4977Z" fill="#FF004F"></path>
<path d="M16.1312 7.02433C17.7393 8.17755 19.7085 8.85613 21.8354 8.85613V5.62273C20.6482 5.36893 19.5971 4.74629 18.8069 3.88024C17.4542 3.03315 16.4796 1.63566 16.1939 0H13.212V16.4069C13.2053 18.3196 11.6586 19.8684 9.75114 19.8684C8.62713 19.8684 7.62856 19.3307 6.99614 18.4977C5.86683 17.9257 5.0924 16.7514 5.0924 15.3953C5.0924 13.4772 6.64169 11.9221 8.55321 11.9221C8.91945 11.9221 9.27245 11.9794 9.60357 12.0848V8.81606C5.49863 8.90117 2.19727 12.2672 2.19727 16.407C2.19727 18.4736 3.01938 20.347 4.35368 21.7158C5.55742 22.5269 7.00648 23 8.56552 23C12.7439 23 16.1313 19.6006 16.1313 15.4072V7.02433H16.1312Z" fill="black"></path>
<path d="M21.836 5.62271V4.74842C20.7654 4.75005 19.7158 4.44915 18.8075 3.88014C19.6115 4.76361 20.6703 5.37278 21.836 5.62271ZM16.1945 -1.73536e-05C16.1672 -0.156342 16.1463 -0.313697 16.1318 -0.471652V-1H12.0146V15.4071C12.008 17.3195 10.4614 18.8683 8.55379 18.8683C7.99375 18.8683 7.46498 18.7349 6.99671 18.4978C7.62913 19.3307 8.6277 19.8683 9.75171 19.8683C11.659 19.8683 13.2059 18.3197 13.2126 16.407V-1.73536e-05H16.1945ZM9.60431 8.81605V7.8853C9.26029 7.83811 8.91344 7.81443 8.56618 7.8146C4.38741 7.81452 1 11.2139 1 15.4071C1 18.036 2.33131 20.3528 4.35434 21.7156C3.02004 20.3469 2.19792 18.4734 2.19792 16.4069C2.19792 12.2672 5.4992 8.90116 9.60431 8.81605Z" fill="#00F2EA"></path>
</g>
<defs>
<clipPath id="svg787146747_4019_clip0_241_1993">
<rect width="24" height="24" fill="white"></rect>
</clipPath>
</defs>
</svg>