<svg width="24" height="24" viewBox="0 0 24 24" fill="none" xmlns="http://www.w3.org/2000/svg" id="svg1741435594_3905">
<g clip-path="url(#svg1741435594_3905_clip0_1061_3411)">
<path d="M0 12.8447V11.1648C0.0359931 10.8959 0.0671313 10.6247 0.105634 10.356C0.42522 8.01777 1.43553 5.8286 3.00719 4.06804C4.79665 2.01057 7.24486 0.638161 9.93376 0.18482C10.3705 0.107978 10.8001 0.0599311 11.2513 0H12.7513C12.8199 0.0190846 12.8896 0.0334819 12.96 0.0431912C14.8504 0.173772 16.6787 0.771587 18.2807 1.78327C19.7312 2.66333 20.9757 3.84443 21.9304 5.24662C22.8853 6.64902 23.528 8.23992 23.8152 9.91202C23.892 10.3249 23.9399 10.7424 24 11.1575V12.8375C23.964 13.1063 23.9352 13.3776 23.8944 13.6462C23.555 16.1177 22.4458 18.4196 20.7239 20.2248C18.8894 22.1993 16.4322 23.4839 13.7639 23.8632C13.4256 23.9136 13.0871 23.9545 12.7487 24H11.2511C10.9655 23.9663 10.6799 23.9352 10.3966 23.8969H10.3968C7.88059 23.5508 5.53806 22.4181 3.70463 20.6607C1.87099 18.9034 0.639836 16.6112 0.187179 14.1121C0.110336 13.68 0.0624559 13.2672 1.3079e-05 12.8449L0 12.8447ZM11.2346 11.4311V6.77771L7.22657 6.53764C6.70992 8.11581 6.42921 9.76164 6.39368 11.4216H11.2344L11.2346 11.4311ZM16.7713 6.54457L12.761 6.78464V11.4239H17.6064C17.5682 9.76555 17.287 8.12156 16.7712 6.54464L16.7713 6.54457ZM7.22657 17.4525L11.2369 17.2124V12.9597H6.40817C6.4743 14.4877 6.74969 15.9994 7.22665 17.4524L7.22657 17.4525ZM17.568 12.9598H12.768V17.2199L16.7567 17.4599C17.1503 16.5598 17.6471 13.8094 17.568 12.96V12.9598ZM5.67342 6.33843C4.95338 6.20165 4.25494 6.06488 3.54947 5.94485C3.46476 5.95874 3.39043 6.00863 3.3454 6.08162C2.52477 7.26203 1.96274 8.60246 1.69673 10.0152C1.608 10.4761 1.56949 10.9464 1.50705 11.4193H4.86696C5.06384 8.79853 5.06384 8.79853 5.67336 6.33863L5.67342 6.33843ZM19.1134 11.4238H22.4733C22.4134 10.9678 22.3702 10.5287 22.2934 10.0943C22.0283 8.64031 21.4556 7.25985 20.6134 6.04546C20.5613 5.94836 20.4445 5.90584 20.3422 5.94719C20.1021 6.00478 19.8622 6.04797 19.6103 6.0935L18.2856 6.33357H18.2854C18.7906 7.9854 19.0731 9.69732 19.1255 11.4237L19.1134 11.4238ZM5.67342 17.6638C5.21138 16.1305 4.94284 14.5454 4.87422 12.9452H1.51431C1.58396 13.3653 1.63669 13.7732 1.71839 14.174C2.00047 15.5194 2.54707 16.7953 3.32638 17.9277C3.37879 18.033 3.49966 18.0847 3.61199 18.0501C3.85206 17.9901 4.09195 17.9493 4.33203 17.9061L5.67342 17.6638ZM18.3021 17.6638C19.0222 17.8029 19.7422 17.9398 20.4381 18.0597C20.522 18.0453 20.5955 17.9954 20.6399 17.9229C21.2973 16.9833 21.7846 15.9353 22.0798 14.827C22.2407 14.215 22.3389 13.5887 22.471 12.9502H19.1086C19.0423 14.5461 18.7754 16.1273 18.3142 17.6568L18.3021 17.6638ZM7.83814 18.9142C8.39729 20.4838 10.2381 22.3342 11.2389 22.3558V18.7389L7.83814 18.9142ZM12.7628 5.25826L16.1613 5.08299C15.6142 3.52792 13.7517 1.65829 12.7607 1.64389V5.25827L12.7628 5.25826ZM11.2389 1.59117C9.50854 2.18632 8.59881 3.54 7.80214 5.08084L11.2389 5.25846V1.59117ZM16.1975 18.9165L12.7583 18.7412L12.7582 22.4085C14.4885 21.8205 15.3885 20.4622 16.1975 18.9165ZM19.4399 4.60787C18.5695 3.73397 17.5525 3.01998 16.435 2.49832C16.699 2.91835 16.9463 3.28547 17.1551 3.66951C17.3638 4.05355 17.5702 4.4664 17.7815 4.86951L19.4399 4.60787ZM7.54315 21.4751C7.30308 21.0791 7.04395 20.7118 6.82311 20.3278C6.6023 19.9437 6.41028 19.5309 6.19915 19.1278L4.58164 19.399C5.12875 20.0542 6.74391 21.1918 7.54315 21.4751ZM7.50481 2.51516V2.515C6.41046 3.03866 5.41437 3.74662 4.55989 4.60778L6.1702 4.87413L7.50481 2.51516ZM16.459 21.4485C17.564 20.9635 18.5673 20.2738 19.4157 19.4156C19.3679 19.393 19.318 19.3746 19.2669 19.3605C18.8517 19.2909 18.434 19.243 18.0237 19.1518V19.1516C17.9499 19.125 17.8682 19.1315 17.7996 19.1698C17.7311 19.208 17.6824 19.274 17.6661 19.3508C17.4405 19.8117 17.1862 20.2652 16.9461 20.7117C16.7998 20.9685 16.6222 21.2037 16.459 21.4485Z" fill="#F5F0F0"></path>
</g>
<defs>
<clipPath id="svg1741435594_3905_clip0_1061_3411">
<rect width="24" height="24" fill="white"></rect>
</clipPath>
</defs>
</svg>