<svg width="62" height="83" viewBox="0 0 62 83" fill="none" xmlns="http://www.w3.org/2000/svg" id="svg-1020239642_47317">
<g clip-path="url(#svg-1020239642_47317_clip0_1063_3563)">
<path d="M20.2321 59.1189C20.2587 59.3121 20.2853 59.452 20.3119 59.6319C21.6621 59.6652 22.979 59.6185 24.2959 59.6585C24.3025 59.7384 24.3092 59.8184 24.3158 59.8983C24.1628 59.9383 24.0165 60.0049 23.8635 60.0049C22.7595 60.0116 21.6488 60.0049 20.4716 60.0049C20.5248 60.1981 20.5713 60.3446 20.6378 60.5778H23.6374C23.6441 60.6444 23.6507 60.711 23.6574 60.7776C23.5044 60.8176 23.3514 60.8909 23.2051 60.8909C22.4535 60.9042 21.702 60.8909 20.8573 60.8909C20.9837 61.0907 21.0635 61.2306 21.1433 61.3505C21.7752 61.3971 22.3804 61.4437 22.979 61.497C22.9923 61.497 22.9989 61.6036 23.0322 61.7502H21.6754C21.6621 61.8101 21.6554 61.8701 21.6421 61.93C21.8084 61.9833 21.968 62.0699 22.1343 62.0766C22.5666 62.0966 22.9989 62.0766 23.4246 62.0899C23.5643 62.0899 23.7039 62.1632 23.8436 62.2031C23.8436 62.2631 23.8303 62.3297 23.8303 62.3897C23.4246 62.4163 23.0122 62.4429 22.4802 62.4762C23.3381 62.9492 24.1495 63.1624 25.0807 63.229C26.1116 60.1581 27.1358 57.0939 28.1867 53.9697H27.1824V53.6034H28.2864C28.3529 53.4235 28.4128 53.257 28.4793 53.0838C27.8075 52.8973 27.1159 53.177 26.504 52.9106C26.504 52.844 26.5106 52.7774 26.5173 52.7108H28.5857C28.6788 52.4643 28.7453 52.2778 28.8584 51.9913H27.1691C27.4351 51.5051 27.7743 51.6916 28.0337 51.6649C28.3197 51.6316 28.6123 51.6583 28.9449 51.6583C28.9981 51.4984 29.0513 51.3518 29.1444 51.0787H27.4218C27.4218 51.0188 27.4218 50.9588 27.4218 50.8922C27.9938 50.5858 28.6522 50.8922 29.2841 50.7124C29.3107 50.5991 29.3439 50.4726 29.3838 50.3193C28.8185 50.1462 28.2199 50.4193 27.5681 50.0795C28.2798 49.7465 28.9183 49.9996 29.5501 49.853C29.5833 49.7531 29.6233 49.6332 29.6765 49.4734C28.6256 49.3468 27.5881 49.54 26.5838 49.2802C27.0759 48.9405 27.6213 49.1003 28.1467 49.0737C28.6855 49.047 29.2242 49.0737 29.7895 49.0737C29.856 48.9338 29.9159 48.8006 30.029 48.5408H26.0983L26.0584 48.3143C26.2113 48.2677 26.3643 48.1811 26.5173 48.1811C27.7011 48.1677 28.885 48.1811 30.1088 48.1811C30.1553 48.0412 30.2085 47.9079 30.295 47.6615H26.6835C26.6769 47.5949 26.6702 47.5216 26.6569 47.455C26.8033 47.415 26.9496 47.3417 27.0959 47.3417C28.0669 47.3284 29.0313 47.3417 30.0024 47.3351C30.1553 47.3351 30.3083 47.2818 30.4613 47.2485C30.4613 47.1952 30.448 47.1419 30.448 47.0886C30.2883 47.0753 30.1354 47.0553 29.9758 47.0553C28.9582 47.0553 27.9472 47.0553 26.9296 47.0553C26.7833 47.0553 26.6436 46.982 26.4973 46.9354C26.5106 46.8754 26.5173 46.8088 26.5306 46.7489H30.4746C30.8603 46.3092 31.1596 45.9628 31.4257 45.6631C32.1772 45.8429 32.3368 46.3892 32.6295 46.9421H38.5355C38.5422 47.0153 38.5555 47.0819 38.5621 47.1552C38.4025 47.1885 38.2429 47.2551 38.0899 47.2618C36.4737 47.2685 34.8575 47.2618 33.2414 47.2618C33.095 47.2618 32.9421 47.2618 32.7425 47.2618C32.7891 47.435 32.8157 47.5416 32.8556 47.7014H38.5688C38.5887 47.7614 38.602 47.828 38.622 47.888C38.469 47.9413 38.316 48.0412 38.1564 48.0412C36.6333 48.0545 35.1103 48.0478 33.5872 48.0478C33.4076 48.0478 33.2281 48.0478 32.9753 48.0478C33.0485 48.2876 33.1083 48.4542 33.1815 48.694H38.1298C38.1431 48.7606 38.1564 48.8339 38.1764 48.9005C38.03 48.9471 37.8904 49.0404 37.744 49.0404C36.4072 49.0537 35.0704 49.047 33.7269 49.047C33.6072 49.047 33.4941 49.047 33.3145 49.047C33.3744 49.2469 33.4209 49.3868 33.4741 49.56C34.3986 49.56 35.3031 49.5533 36.2143 49.5666C36.3473 49.5666 36.4804 49.6799 36.6134 49.7398C36.5934 49.7998 36.5735 49.8597 36.5535 49.9197H33.6072C33.6803 50.1328 33.7269 50.2661 33.7601 50.3793C34.7046 50.4259 35.6024 50.4659 36.5003 50.5192C36.5136 50.5192 36.5269 50.5991 36.5668 50.7457H33.8998C33.973 50.9988 34.0129 51.132 34.0661 51.3185C34.5715 51.3185 35.0637 51.2986 35.5492 51.3185C35.9948 51.3452 36.4737 51.1853 36.8794 51.5317C36.0215 51.7582 35.1435 51.605 34.219 51.6982C34.2656 51.8714 34.3122 52.0246 34.3787 52.2644H36.4006L36.4139 52.4976C35.8219 52.7108 35.1635 52.4976 34.5117 52.6308C34.5715 52.8173 34.6314 52.9905 34.7112 53.2437H36.62C36.62 53.3236 36.6267 53.3969 36.6333 53.4768C36.088 53.69 35.4761 53.4635 34.8509 53.61C34.9041 53.7966 34.9573 53.9697 35.0172 54.1696H38.2894C38.5022 52.5043 38.7151 50.8656 38.9412 49.1136C39.3868 49.1803 39.7992 49.2002 40.1849 49.3135C40.983 49.5333 41.7812 49.5799 42.5992 49.5666C43.8629 49.5466 45.1199 49.56 46.3836 49.5666C46.5299 49.5666 46.6829 49.6532 46.8292 49.6998L46.7827 49.8864H42.5726C42.566 49.9463 42.5527 49.9996 42.546 50.0596C42.7721 50.1128 42.9983 50.1994 43.2178 50.2061C44.3285 50.2194 45.4325 50.2128 46.5432 50.2194C46.6962 50.2194 46.8425 50.2327 47.0221 50.2394C47.0287 50.3526 47.042 50.4326 47.0487 50.5791H43.8296C43.8163 50.6324 43.8097 50.6924 43.7964 50.7457C44.0225 50.8056 44.2553 50.9122 44.4814 50.9189C45.9114 50.9322 47.3413 50.9189 48.7713 50.9255C48.9309 50.9255 49.0905 50.9921 49.2435 51.0254C49.2369 51.0921 49.2236 51.1587 49.2169 51.2319H44.8339C44.814 51.2786 44.794 51.3252 44.7741 51.3718C44.9537 51.5384 45.1332 51.7049 45.3394 51.8914C45.9845 51.8914 46.643 51.8914 47.3014 51.8914C48.5651 51.8914 49.8221 51.8914 51.0858 51.9047C51.2321 51.9047 51.3785 51.998 51.5181 52.0446C51.5048 52.1112 51.4849 52.1779 51.4716 52.2445H45.6853C45.9114 52.5309 46.0511 52.6974 46.1907 52.8773H50.7001C50.72 52.9905 50.7333 53.0905 50.7599 53.2303H46.4368C46.5765 53.4835 46.6762 53.6633 46.8093 53.9031H51.0925C51.1058 53.9697 51.1191 54.0364 51.139 54.0963C50.986 54.1429 50.8331 54.2295 50.6801 54.2295C49.616 54.2429 48.5585 54.2362 47.4943 54.2362C47.348 54.2362 47.195 54.2362 46.9822 54.2362C47.082 54.4827 47.1485 54.6625 47.2416 54.8957H54.4445C54.4312 55.0422 54.4246 55.1288 54.4179 55.262H47.3879C47.4345 55.4619 47.4677 55.6018 47.5209 55.8216H54.7771L54.8037 56.0348C54.6241 56.0681 54.4512 56.1347 54.2716 56.1347C52.2564 56.1413 50.2411 56.1347 48.2259 56.1347C48.0463 56.1347 47.8601 56.1347 47.614 56.1347C47.634 56.3478 47.6539 56.521 47.6739 56.7542H53.9391C54.0122 57.2005 53.7262 57.1139 53.54 57.1139C51.8174 57.1205 50.0948 57.1139 48.3722 57.1139C48.1794 57.1139 47.9798 57.1139 47.7271 57.1139C47.747 57.3604 47.7603 57.5535 47.7869 57.8266H54.5443C54.5509 57.8933 54.5643 57.9665 54.5709 58.0331C54.4113 58.0665 54.2517 58.1331 54.0854 58.1331C52.1633 58.1397 50.2411 58.1331 48.319 58.1331C48.1528 58.1331 47.9865 58.1331 47.7803 58.1331C47.7537 58.3729 47.7271 58.5794 47.6938 58.8059C49.3366 58.8525 50.9395 58.8991 52.5357 58.9524C52.549 58.9524 52.5557 59.0057 52.6022 59.1189C52.4293 59.1522 52.2697 59.2122 52.1167 59.2122C50.8065 59.2189 49.5029 59.2122 48.1927 59.2122C48.0264 59.2122 47.8601 59.2122 47.6539 59.2122C47.6074 59.432 47.5675 59.6185 47.5143 59.8783H53.5001C53.5533 60.3113 53.274 60.2314 53.0877 60.2314C51.3652 60.2314 49.6426 60.2314 47.92 60.2314C47.767 60.2314 47.614 60.2314 47.4278 60.2314C47.3679 60.4179 47.3147 60.5844 47.2349 60.8442C47.4744 60.8442 47.6672 60.8442 47.8535 60.8442C49.4829 60.8442 51.1124 60.8442 52.7485 60.8442C52.9215 60.8442 53.0877 60.9242 53.2607 60.9641C53.2474 61.0307 53.2341 61.0907 53.2208 61.1573H47.1219C46.9689 61.4704 46.8492 61.7302 46.6762 62.0832C47.614 62.0832 48.4786 62.0832 49.3499 62.0832C50.2212 62.0832 51.1058 62.0832 51.9837 62.0832C52.8417 62.0832 53.6996 62.0699 54.5576 62.0899C54.5576 62.1765 54.5709 62.2631 54.5775 62.3497C54.4113 62.383 54.245 62.4429 54.0787 62.4429C51.6777 62.4429 49.2768 62.4429 46.8758 62.4429C46.7361 62.4429 46.6031 62.4429 46.4568 62.4429C46.3237 62.6361 46.204 62.8093 46.0245 63.0758H52.8483C52.8616 63.1424 52.8816 63.209 52.8949 63.2756C52.7352 63.3289 52.5756 63.4288 52.4226 63.4288C50.8198 63.4421 49.2235 63.4355 47.6207 63.4355C46.9888 63.4355 46.3636 63.4355 45.785 63.4355C45.5256 63.6753 45.3062 63.8818 44.9936 64.1749H52.0835C52.1034 64.2348 52.1234 64.2948 52.15 64.3614C52.0169 64.4214 51.8906 64.5413 51.7576 64.5413C50.7134 64.5612 49.6625 64.5546 48.6183 64.5546C47.5409 64.5546 46.4568 64.6145 45.386 64.5346C44.6145 64.4746 44.0691 64.8077 43.5237 65.314C46.0311 65.314 48.5385 65.314 51.0459 65.314C53.5267 65.314 56.0142 65.314 58.4949 65.314C58.5016 65.4072 58.5083 65.5005 58.5149 65.5871C58.3287 65.6137 58.1425 65.6737 57.9629 65.6737C53.1609 65.6737 48.3656 65.6937 43.5636 65.6604C42.7056 65.6604 41.9474 65.8935 41.0562 66.2266C41.269 66.2465 41.3755 66.2732 41.4885 66.2732C43.9494 66.2732 46.4102 66.2732 48.8711 66.2732C49.0506 66.2732 49.2369 66.3331 49.4164 66.3665C49.4098 66.453 49.4031 66.5396 49.3898 66.6262C46.0311 66.6529 42.6724 66.6262 39.2272 66.6396C39.2871 66.8661 39.3403 67.0459 39.4001 67.2524H50.7001C50.7267 67.379 50.7466 67.4722 50.7732 67.6188H39.5597C39.6196 67.8586 39.6662 68.0451 39.7327 68.2849C41.8676 68.2849 43.9826 68.2849 46.1043 68.2849C48.206 68.2849 50.301 68.2849 52.4027 68.2849C52.4027 68.3782 52.416 68.4714 52.4226 68.5647C52.2364 68.5913 52.0568 68.6513 51.8706 68.6513C48.1195 68.6513 44.3617 68.6513 40.6106 68.6513C40.3978 68.6513 40.1849 68.6513 39.9122 68.6513C39.9655 68.8378 40.0054 68.9577 40.0519 69.1242H47.481C47.501 69.1842 47.5143 69.2508 47.5342 69.3108C47.3812 69.364 47.2283 69.464 47.0686 69.464C45.3328 69.4773 43.5902 69.464 41.8543 69.464C41.4021 69.464 40.9564 69.464 40.5042 69.464C40.5042 69.5106 40.5042 69.5572 40.5042 69.6105H42.1004C42.2068 69.797 42.2733 69.9103 42.3598 70.0701C42.5061 70.0701 42.6724 70.0701 42.8387 70.0701C45.2396 70.0701 47.6406 70.0701 50.0416 70.0701C50.2212 70.0701 50.4074 70.1567 50.587 70.1967C50.5737 70.2633 50.5604 70.3299 50.5471 70.4032H42.3066V71.2559H49.4297C49.443 71.3291 49.4497 71.4091 49.463 71.4823C49.2967 71.5223 49.1238 71.6022 48.9575 71.6022C45.4325 71.6089 41.9142 71.6022 38.3892 71.6022C38.3759 71.6022 38.3559 71.6022 38.3426 71.6022C37.1521 71.6022 36.4139 71.0227 36.1013 69.877C35.8086 68.8112 35.516 67.7453 35.2167 66.6596H27.8807C27.8275 66.8661 27.7743 67.0659 27.7078 67.3257H30.0024C30.0356 67.4589 30.0622 67.5522 30.1021 67.6987H27.6014C27.5349 67.9319 27.4817 68.125 27.4151 68.3915C28.466 68.3915 29.4437 68.3915 30.428 68.3915C30.7805 68.3915 31.133 68.3782 31.4922 68.3982C31.6119 68.3982 31.7249 68.4848 31.8447 68.538C31.838 68.5913 31.8247 68.6446 31.8181 68.6979H27.3353C27.2555 68.951 27.2023 69.1376 27.1225 69.3907H29.5501C29.57 69.4506 29.5833 69.5106 29.6033 69.5639C29.4636 69.6172 29.324 69.7171 29.1776 69.7238C28.4859 69.7437 27.7942 69.7304 27.0626 69.7304C27.0094 69.8903 26.9629 70.0435 26.8831 70.2833H30.6009C30.6142 70.3499 30.6342 70.4165 30.6475 70.4831C30.4879 70.5364 30.3283 70.6364 30.1686 70.6364C29.1843 70.6497 28.2 70.643 27.2156 70.643H26.6968C26.1315 71.4424 25.3334 71.6289 24.4222 71.6022C23.4246 71.5689 22.4203 71.6023 21.4227 71.5956C21.2431 71.5956 21.0702 71.5556 20.8573 71.529V69.6771C21.4293 69.6505 21.9813 69.6305 22.5334 69.6039C22.5334 69.5639 22.5334 69.5239 22.5334 69.4773H12.5703C12.5503 69.4373 12.5304 69.3974 12.5104 69.3574C12.5836 69.2775 12.6501 69.1575 12.7365 69.1376C12.8962 69.0976 13.0757 69.1176 13.242 69.1176C16.3014 69.1176 19.3675 69.1176 22.4269 69.1176C22.6265 69.1176 22.826 69.1176 23.0388 69.1176C23.0987 68.9577 23.1386 68.8378 23.2184 68.6246C21.4094 68.6246 19.6668 68.6246 17.9243 68.6246C16.195 68.618 14.4591 68.6579 12.7299 68.598C12.7232 68.5114 12.7166 68.4248 12.7099 68.3449C12.8895 68.3182 13.0691 68.2649 13.2553 68.2649C16.4411 68.2649 19.6269 68.2649 22.806 68.2649C22.9856 68.2649 23.1718 68.2449 23.378 68.2383C23.4379 68.0251 23.4977 67.8253 23.5709 67.5522H13.0159C12.9959 67.5122 12.976 67.4722 12.956 67.4323C13.0292 67.3523 13.089 67.2324 13.1821 67.2058C13.3085 67.1658 13.4548 67.1925 13.5945 67.1925C16.7936 67.1925 19.9927 67.1925 23.1918 67.1925C23.3448 67.1925 23.4977 67.1925 23.6973 67.1925C23.7571 67.0259 23.817 66.8594 23.8968 66.6196C21.3694 66.6196 18.9153 66.6196 16.4611 66.6196C14.0202 66.6196 11.5793 66.6196 9.14503 66.6196C9.13838 66.533 9.13173 66.4397 9.12508 66.3531C9.29135 66.3198 9.45763 66.2599 9.6239 66.2599C13.5613 66.2599 17.4986 66.2599 21.436 66.2599C21.569 66.2599 21.7086 66.2599 21.8417 66.2599C21.855 66.2132 21.8616 66.1666 21.8749 66.12C21.1899 65.9268 20.4982 65.5804 19.8065 65.5738C15.2705 65.5271 10.728 65.5538 6.19202 65.5471C6.00579 65.5471 5.81957 65.5138 5.63334 65.4938C5.62004 65.4339 5.61339 65.3673 5.60009 65.3073C5.77301 65.2673 5.93928 65.1874 6.11221 65.1874C8.45333 65.1807 10.7878 65.1874 13.1289 65.1874C15.1774 65.1874 17.2193 65.1941 19.2678 65.2007C19.2944 65.2007 19.321 65.1807 19.434 65.1341C18.9751 64.8677 18.6559 64.5279 18.0905 64.5346C15.5366 64.5612 12.9826 64.5479 10.4287 64.5479C10.2491 64.5479 10.0695 64.5213 9.88329 64.5079C9.85003 64.1083 10.1094 64.1815 10.3023 64.1815C12.5636 64.1815 14.8249 64.1815 17.0862 64.1815C17.3722 64.1815 17.6582 64.1815 18.0639 64.1815C17.7912 63.8884 17.6117 63.6953 17.4188 63.4821C15.3237 63.4688 13.2287 63.4888 11.1337 63.4688L11.1137 63.1957C11.2866 63.169 11.4596 63.1157 11.6325 63.1157C13.262 63.1157 14.8914 63.1157 16.5276 63.1157H17.0796C16.9399 62.9026 16.8402 62.756 16.7204 62.5695C16.4611 62.5695 16.1884 62.5695 15.9157 62.5695C14.2064 62.5695 12.4971 62.5695 10.7945 62.5695C10.6282 62.5695 10.4619 62.5096 10.3023 62.4762C10.3089 62.3963 10.3156 62.3164 10.3289 62.2298C10.9873 62.2231 11.6458 62.2098 12.3042 62.2031C12.9959 62.2031 13.6876 62.2031 14.3793 62.2031C15.0511 62.2031 15.7228 62.2031 16.4877 62.2031C16.3413 61.9167 16.2283 61.7035 16.0753 61.4104C14.3461 61.4104 12.5969 61.4104 10.8543 61.4104C10.8344 61.4104 10.8078 61.3372 10.7213 61.2039C10.9408 61.1706 11.1137 61.1173 11.2866 61.1173C12.6567 61.1173 14.0268 61.1173 15.3969 61.1173C15.5632 61.1173 15.7295 61.1173 15.9556 61.1173C15.8758 60.8775 15.8159 60.691 15.7361 60.4512H3.92405C3.9041 60.4046 3.8908 60.3579 3.87084 60.3113C3.97061 60.2447 4.05707 60.1381 4.16348 60.1115C4.28985 60.0782 4.43617 60.0982 4.57584 60.0982C8.05428 60.0982 11.5327 60.0982 15.0045 60.0982H15.6496C15.5964 59.8583 15.5632 59.6852 15.51 59.4453C14.8249 59.4453 14.1532 59.4453 13.4814 59.4453C12.803 59.4453 12.1246 59.4453 11.4529 59.4453C10.7945 59.4453 10.1294 59.4453 9.47093 59.4453C8.81249 59.4453 8.11414 59.4587 7.44239 59.4453C6.7906 59.432 6.12551 59.5186 5.48702 59.3854C5.48702 59.3121 5.48037 59.2388 5.47372 59.1656C5.65994 59.1389 5.85282 59.079 6.03905 59.079C8.97876 59.079 11.9185 59.079 14.8515 59.079C15.0311 59.079 15.2173 59.079 15.4435 59.079C15.4169 58.8059 15.3903 58.5927 15.357 58.2596C12.0581 58.2596 8.78588 58.2596 5.52027 58.2596C5.50697 58.2596 5.49367 58.213 5.41386 58.0731C5.63999 58.0331 5.81957 57.9799 6.00579 57.9799C8.92555 57.9799 11.852 57.9799 14.7717 57.9799C14.938 57.9799 15.1109 57.9799 15.3237 57.9799C15.3437 57.7734 15.3637 57.5868 15.3903 57.3137H4.17013C4.15683 57.2471 4.14353 57.1738 4.12358 57.1072C4.28985 57.0606 4.45612 56.974 4.6224 56.974C6.33169 56.9673 8.04098 56.974 9.74362 56.974C11.4529 56.974 13.1622 56.974 14.8648 56.974H15.3903C15.4235 56.7742 15.4501 56.6143 15.4967 56.3678C15.2905 56.3678 15.1309 56.3678 14.9712 56.3678C13.3085 56.3678 11.6458 56.3678 9.9897 56.3612C9.82343 56.3612 9.6638 56.2746 9.49753 56.2279C9.51083 56.1613 9.53079 56.1014 9.54409 56.0348H15.5698C15.6164 55.8283 15.643 55.6884 15.6895 55.4619H10.555L10.5085 55.262C10.6747 55.2154 10.8344 55.1222 11.0006 55.1222C12.4173 55.1088 13.8339 55.1222 15.2439 55.1222C15.4235 55.1222 15.6097 55.1222 15.8093 55.1222C15.8691 54.949 15.9157 54.8091 15.9888 54.6026C14.5722 54.6026 13.2154 54.6026 11.852 54.6026C10.5218 54.6026 9.18494 54.5959 7.85475 54.5892C7.8481 54.5026 7.84145 54.4161 7.8348 54.3295C8.01437 54.3028 8.2006 54.2495 8.38018 54.2495C10.7945 54.2495 13.2088 54.2495 15.623 54.2495C15.7893 54.2495 15.9556 54.2495 16.1485 54.2495C16.2549 54.0497 16.3546 53.8698 16.481 53.63C16.3014 53.6167 16.1817 53.6034 16.0687 53.6034C10.9275 53.6034 5.79296 53.6034 0.651791 53.59C0.432311 53.59 0.0864621 53.7433 0 53.2636H16.6872C16.8402 53.0571 16.9665 52.8773 17.1727 52.5909C15.4634 52.5909 13.8539 52.5909 12.251 52.5909C10.6681 52.5909 9.09182 52.6175 7.5089 52.5709L7.48895 52.3177C7.66853 52.2911 7.8481 52.2311 8.02768 52.2311C11.1669 52.2311 14.3062 52.2311 17.3124 52.2311C17.5585 52.0446 17.7247 51.9247 17.8844 51.7982C17.8711 51.7715 17.8644 51.7382 17.8511 51.7116C17.625 51.7116 17.4055 51.7116 17.1794 51.7116C15.6563 51.7116 14.1332 51.7116 12.6102 51.7116C12.4505 51.7116 12.2909 51.6449 12.1313 51.6116C12.138 51.545 12.1513 51.4851 12.1579 51.4185C12.3441 51.3985 12.5304 51.3585 12.7166 51.3585C14.4857 51.3585 16.2549 51.3652 18.024 51.3452C18.2834 51.3452 18.5361 51.2053 18.7955 51.132C18.7822 51.0787 18.7756 51.0254 18.7623 50.9722C18.6492 50.9655 18.5361 50.9455 18.4231 50.9455C17.053 50.9455 15.6829 50.9455 14.3128 50.9388C14.1532 50.9388 13.9869 50.8522 13.8273 50.8056C13.8406 50.7457 13.8539 50.6857 13.8672 50.6258C14.0401 50.6124 14.2197 50.5858 14.3926 50.5858C15.9157 50.5858 17.4387 50.6058 18.9618 50.5658C19.4473 50.5525 19.9328 50.346 20.4184 50.2261C20.4051 50.1528 20.3984 50.0729 20.3851 49.9996H11.5128L11.4862 49.7864C11.6591 49.7465 11.832 49.6799 12.0116 49.6799C14.8715 49.6799 17.738 49.6465 20.5979 49.6932C21.5956 49.7132 22.4935 49.3535 23.4512 49.2269C23.6707 49.2002 23.8968 49.1936 24.1828 49.1669C24.2759 49.8197 24.3624 50.4193 24.4422 51.0254C24.5685 51.9847 24.6816 52.9506 24.808 53.9098C24.8479 54.2362 24.8213 54.5026 24.369 54.4693C24.2759 54.3494 24.1828 54.2295 24.0165 54.0164C23.6441 54.083 23.2251 54.1563 22.7994 54.2229C23.1718 54.5226 23.7172 54.1696 24.0897 54.6359C23.1785 54.9889 22.1809 54.3561 21.4559 55.1088C21.4559 55.1621 21.4559 55.2154 21.4626 55.2687H24.4222C24.4289 55.342 24.4355 55.4086 24.4422 55.4819C24.2959 55.5218 24.1429 55.5884 23.9966 55.5884C23.0122 55.5951 22.0279 55.5884 21.0103 55.5884C20.9172 55.715 20.8307 55.8482 20.6445 56.1147H24.2493L24.2826 56.3412C24.1296 56.3811 23.9766 56.4611 23.8236 56.4611C22.7329 56.4744 21.6421 56.4611 20.5115 56.4611C20.4516 56.621 20.3918 56.7675 20.3053 57.0006H22.7196C22.7063 57.1539 22.693 57.2404 22.6797 57.3737H20.2454C20.2255 57.5469 20.2122 57.6734 20.1989 57.82C20.3119 57.84 20.3785 57.8666 20.4516 57.8666C21.4825 57.8666 22.5134 57.8666 23.5443 57.8799C23.6773 57.8799 23.8103 57.9732 23.9434 58.0198C23.9234 58.0798 23.9101 58.1397 23.8901 58.1997H20.1856C20.1723 58.3929 20.159 58.5394 20.1457 58.7659H24.522C24.5419 58.8325 24.5552 58.8991 24.5752 58.9657C24.4289 59.019 24.2826 59.1056 24.1362 59.1123C22.9723 59.1256 21.8018 59.1189 20.6378 59.1189C20.5181 59.1189 20.3984 59.1189 20.2255 59.1189H20.2321ZM27.4218 66.0933H35.7222C35.7953 66.3132 35.8552 66.4797 35.9017 66.6596C36.1944 67.712 36.4804 68.7645 36.773 69.817C36.9991 70.603 37.5113 70.9961 38.3227 70.9961C39.2139 70.9961 40.1051 70.9961 40.9963 70.9961C41.2025 70.9961 41.4154 70.9961 41.6282 70.9961V70.31C41.4287 70.31 41.2624 70.31 41.0961 70.31C40.0918 70.2966 39.6994 70.0235 39.3669 69.0576C39.0809 68.2449 38.8082 67.4256 38.5422 66.6129C38.4956 66.473 38.4889 66.3198 38.4557 66.0933C38.8082 66.0267 39.1141 65.9668 39.4201 65.9201C41.4353 65.6071 43.2976 64.9276 44.8007 63.5021C48.4454 60.0382 47.9399 53.1504 42.5261 50.7323C41.575 50.306 40.5906 49.9863 39.5065 49.8397C39.3602 51.0388 39.2139 52.1912 39.0742 53.3436C42.4396 53.6633 43.9228 56.2812 43.6035 59.0323C43.1779 62.6961 39.9987 63.9684 37.6177 63.8751C36.64 60.9774 35.669 58.0531 34.6713 55.1288C33.6803 52.2178 32.7691 49.2735 31.6052 46.3958C31.3791 46.7023 31.2195 46.9953 31.1131 47.3084C29.304 52.6708 27.5016 58.0331 25.6992 63.3955C25.6393 63.562 25.5595 63.7286 25.493 63.8751C23.2783 63.9617 20.3585 62.8226 19.6535 59.6652C19.0416 56.9074 20.2321 54.536 22.6863 53.6367C23.1253 53.4768 23.5975 53.4235 24.0764 53.3103C23.9301 52.1645 23.7837 51.0121 23.6374 49.8664C23.5243 49.8664 23.4778 49.8597 23.4312 49.8664C23.2184 49.9063 23.0056 49.9463 22.7994 49.9996C20.5846 50.5392 18.6492 51.5184 17.3257 53.4701C15.0444 56.8274 15.7893 61.6303 18.9751 64.0483C20.4849 65.1941 22.2274 65.747 24.0897 65.9868C24.2892 66.0134 24.4754 66.0867 24.6683 66.1333C24.6617 66.2932 24.6683 66.3798 24.6484 66.4464C24.3158 67.4389 24.0099 68.4381 23.6308 69.4107C23.398 70.0169 22.9125 70.3566 22.2208 70.3166C21.9813 70.3033 21.7419 70.3166 21.5091 70.3166V71.0027C22.387 71.0027 23.2317 71.0027 24.0764 71.0027C25.8921 71.0027 26.085 70.8562 26.5638 69.1109C26.8365 68.1184 27.1159 67.1325 27.4018 66.1L27.4218 66.0933ZM40.9232 60.4246C40.9099 60.5045 40.8899 60.5778 40.8766 60.6577H37.2253C37.325 60.9575 37.3982 61.1706 37.478 61.3971C38.203 61.3971 38.8947 61.3905 39.5864 61.4038C39.7327 61.4038 39.879 61.5037 40.0187 61.557C40.0054 61.6236 39.9854 61.6902 39.9721 61.7568H37.611C37.7108 62.0832 37.7839 62.3097 37.8571 62.5429C37.9369 62.7693 38.0167 62.9958 38.0965 63.209C41.555 63.0425 43.4572 60.4112 42.9185 57.347C42.6192 55.6217 41.5284 54.5892 39.8923 54.103C39.6263 54.023 39.327 54.0497 39.0942 54.0297C38.9678 54.2162 38.888 54.3228 38.7683 54.5027H35.1768C35.2765 54.8224 35.3497 55.0489 35.4295 55.2953C36.3407 55.2953 37.2186 55.2953 38.0965 55.2953C38.2429 55.2953 38.3892 55.3686 38.5355 55.4086C38.5289 55.4885 38.5222 55.5685 38.5155 55.6417H35.5492C35.6623 55.9681 35.7355 56.168 35.8153 56.4011C36.0214 56.4011 36.201 56.4011 36.3873 56.4011C37.4048 56.4011 38.4158 56.3945 39.4334 56.4078C39.5664 56.4078 39.6994 56.521 39.8391 56.581C39.8191 56.6409 39.7992 56.7009 39.7792 56.7675H35.9416C36.0348 57.0539 36.1013 57.2671 36.1744 57.5136C37.0457 57.5136 37.8904 57.5136 38.735 57.5136C38.888 57.5136 39.041 57.6002 39.1939 57.6401C39.1806 57.7134 39.1673 57.7933 39.154 57.8666H36.2941C36.3939 58.1197 36.4471 58.253 36.5269 58.4461H38.6685L38.6818 58.6393C38.0566 58.9457 37.3317 58.6327 36.6466 58.8192C36.6998 59.0057 36.7464 59.1922 36.8129 59.4254C37.6376 59.4254 38.449 59.4254 39.2605 59.4254C39.4134 59.4254 39.5597 59.492 39.7127 59.5319C39.7127 59.6052 39.6994 59.6785 39.6994 59.7518H36.9526C37.039 60.0049 37.0789 60.1248 37.1322 60.2847C37.2984 60.2847 37.4514 60.2847 37.6044 60.2847C38.5754 60.2847 39.5398 60.2847 40.5108 60.298C40.6571 60.298 40.8035 60.3713 40.9431 60.4112L40.9232 60.4246Z" fill="black"></path>
<path d="M24.3696 23.1279H26.6841C26.7507 23.1279 26.8039 23.1746 26.8172 23.2345C26.9967 23.9539 27.1763 24.68 27.3625 25.3994C27.5488 26.1522 27.735 26.9116 28.0276 27.6776C28.3934 26.2055 28.7659 24.7333 29.1383 23.2345C29.1516 23.1746 29.2115 23.1279 29.2714 23.1279H31.5859C31.6457 23.1279 31.699 23.1679 31.7189 23.2278C32.517 25.6925 33.3151 28.1705 34.1265 30.6819C34.1531 30.7751 34.0866 30.8684 33.9935 30.8684H31.7322C31.6723 30.8684 31.6191 30.8284 31.5992 30.7751C31.2932 29.8758 30.994 28.9766 30.688 28.0773H30.3289L29.4709 30.7818C29.4509 30.8417 29.3977 30.8817 29.3379 30.8817H26.6243C26.5644 30.8817 26.5112 30.8417 26.4913 30.7818L25.6266 28.0839H25.2608L24.3563 30.7818C24.3364 30.8351 24.2832 30.875 24.2233 30.875H21.9553C21.8622 30.875 21.7957 30.7818 21.8223 30.6885C22.6271 28.1905 23.4252 25.7192 24.23 23.2278C24.2499 23.1679 24.3031 23.1279 24.363 23.1279H24.3696Z" fill="black"></path>
<path d="M25.7708 34.5459C27.7461 34.5459 29.3091 35.4918 29.9143 36.9706C31.025 39.7151 29.2625 42.4595 26.2762 42.6128C24.7665 42.686 23.3831 42.333 22.4121 41.0873C21.4144 39.8083 21.308 38.3628 21.9465 36.904C22.565 35.4785 23.7622 34.7924 25.2587 34.5792C25.4715 34.5459 25.691 34.5526 25.7774 34.5459H25.7708ZM24.4406 38.6559C24.4406 39.5485 25.0325 40.1614 25.8905 40.1547C26.7884 40.1547 27.3803 39.5552 27.3803 38.6426C27.3803 37.7367 26.7751 37.1038 25.9038 37.1038C25.0458 37.1038 24.4406 37.7433 24.4472 38.6559H24.4406Z" fill="black"></path>
<path d="M15.829 31.0351C14.286 31.0018 12.9093 30.5421 12.0513 29.0766C10.6812 26.7252 12.0912 23.681 14.7649 23.2147C16.4609 22.9216 17.9972 23.228 19.1478 24.6069C20.1521 25.8193 20.2785 27.2248 19.7132 28.6503C19.1611 30.0492 18.0172 30.7353 16.5673 30.9618C16.3411 30.9951 16.1083 31.0018 15.829 31.0284V31.0351ZM15.7758 25.6194C14.9511 25.6194 14.3259 26.2856 14.3326 27.1449C14.3392 27.9975 14.9444 28.6237 15.7625 28.637C16.6005 28.6503 17.2257 28.0108 17.2324 27.1382C17.2324 26.2722 16.6005 25.6128 15.7825 25.6194H15.7758Z" fill="black"></path>
<path d="M33.0898 42.4993V34.7455C33.0898 34.7455 33.1431 34.6855 33.1697 34.6855C34.593 34.7122 36.0296 34.6456 37.4462 34.8055C39.8006 35.0719 41.0643 36.9637 40.612 39.3685C40.2995 41.0471 39.2087 42.013 37.5925 42.3261C36.7013 42.4993 35.7635 42.466 34.8457 42.5059C34.2804 42.5259 33.715 42.5059 33.0965 42.5059L33.0898 42.4993ZM35.6172 40.2344C36.4353 40.2477 37.2334 40.3077 37.7388 39.5816C38.1645 38.9688 38.1778 38.2494 37.7788 37.6232C37.2799 36.8438 36.4685 36.8438 35.6172 36.9104V40.2344Z" fill="black"></path>
<path d="M50.1268 42.4798H43.6022C43.5157 42.4798 43.4492 42.4132 43.4492 42.3266V34.8593C43.4492 34.7727 43.5157 34.7061 43.6022 34.7061H49.9405C50.027 34.7061 50.0935 34.7727 50.0935 34.8593V36.6645C50.0935 36.7511 50.027 36.8177 49.9405 36.8177H46.063C45.9766 36.8177 45.9101 36.8843 45.9101 36.9709V37.8102C45.9101 37.8968 45.9766 37.9634 46.063 37.9634H49.7543C49.8408 37.9634 49.9073 38.0301 49.9073 38.1167V39.1891C49.9073 39.2757 49.8408 39.3423 49.7543 39.3423H46.063C45.9766 39.3423 45.9101 39.4089 45.9101 39.4955V40.155C45.9101 40.2416 45.9766 40.3082 46.063 40.3082H50.1268C50.2132 40.3082 50.2797 40.3748 50.2797 40.4614V42.3199C50.2797 42.4065 50.2132 42.4731 50.1268 42.4731V42.4798Z" fill="black"></path>
<path d="M33.281 75.8858C34.6844 75.9058 35.8882 76.3588 36.6198 77.6311C37.3115 78.8301 37.2982 80.0758 36.6198 81.2748C36.0345 82.3207 35.0502 82.8203 33.8996 82.9535C32.5228 83.1134 31.2459 82.8536 30.2948 81.7545C29.3503 80.6687 29.2107 79.3897 29.7228 78.0774C30.2615 76.6919 31.3922 76.0524 32.8221 75.8858C32.9751 75.8659 33.1281 75.8858 33.281 75.8858ZM33.2544 80.8152C34.0459 80.8152 34.5846 80.289 34.5979 79.4963C34.6112 78.7302 34.0326 78.124 33.2877 78.1174C32.5228 78.1174 31.9708 78.7036 31.9708 79.5296C31.9708 80.269 32.5162 80.8152 33.2478 80.8152H33.2544Z" fill="black"></path>
<path d="M33.8014 7.1276C31.7596 7.1276 30.3363 6.12175 29.9439 4.48306C29.3985 2.23154 30.9814 0.1199 33.296 0.00665745C34.6927 -0.0599557 35.9297 0.299755 36.7944 1.46549C37.6257 2.58459 37.7122 3.83691 37.1668 5.0959C36.6081 6.36821 35.524 6.94775 34.1872 7.10762C34.0209 7.1276 33.848 7.1276 33.7948 7.1276H33.8014ZM32.3449 3.57046C32.305 4.32985 32.8703 4.94935 33.6219 4.976C34.3668 5.00264 34.9188 4.4764 34.972 3.69703C35.0186 2.93764 34.4665 2.29815 33.7283 2.25818C32.99 2.22488 32.3848 2.79109 32.3515 3.57046H32.3449Z" fill="black"></path>
<path d="M52.4688 30.0491C53.0939 29.3696 53.5994 28.8167 54.1182 28.2572C54.8099 28.7701 55.4883 29.1964 56.4926 28.8101C56.3595 28.5902 56.2997 28.3771 56.16 28.2905C55.9006 28.1306 55.6013 28.044 55.3153 27.9308C55.0693 27.8375 54.8232 27.7642 54.5771 27.6643C53.6859 27.3046 53.0673 26.7251 53.0141 25.6992C52.9609 24.6267 53.4198 23.8207 54.351 23.3078C55.8142 22.4951 57.9757 22.8082 59.2061 24.0006C58.6608 24.5002 58.1154 25.0064 57.5434 25.526C56.4527 24.8332 55.7876 24.7866 55.6479 25.5327C55.8873 25.6393 56.1467 25.7592 56.4128 25.8591C56.8517 26.0323 57.3106 26.1788 57.7429 26.3787C59.6717 27.2846 59.246 29.5761 58.0422 30.4421C56.9116 31.2548 55.6612 31.3014 54.3909 30.915C53.759 30.7219 53.1737 30.3755 52.4688 30.0491Z" fill="black"></path>
<path d="M9.33637 23.9741C8.8309 24.5803 8.32543 25.1932 7.79335 25.8393C7.32114 25.393 6.76246 25.1532 6.15057 25.333C5.81803 25.433 5.46553 25.6395 5.24605 25.8993C4.68737 26.5454 4.77383 27.6045 5.37241 28.2174C5.9976 28.8569 6.82897 28.8236 7.80666 28.0908C8.31878 28.7037 8.83755 29.3232 9.34302 29.9293C8.1126 31.4681 4.97336 31.5147 3.37048 30.0493C1.66785 28.4905 1.62794 25.6128 3.27737 24.0074C4.84034 22.4887 8.05939 22.4554 9.33637 23.9741Z" fill="black"></path>
<path d="M49.6886 23.9609C49.1631 24.5938 48.6577 25.2066 48.1522 25.8195C47.3142 25.1333 46.2633 25.0667 45.6115 25.8394C45.0396 26.5189 45.0994 27.658 45.7179 28.2375C46.403 28.877 47.2676 28.837 48.1189 28.0776C48.6377 28.6905 49.1498 29.31 49.662 29.9162C48.8838 31.1085 45.9374 31.7347 44.0153 30.3025C42.1198 28.8903 41.8405 25.986 43.4234 24.1941C44.8999 22.5221 48.1322 22.3822 49.6819 23.9609H49.6886Z" fill="black"></path>
<path d="M19.081 41.5337C17.7841 43.0724 14.6781 43.1057 13.0952 41.6336C11.3593 40.0149 11.3526 37.1772 13.0818 35.5318C14.5717 34.1063 17.804 34.1063 19.0677 35.5651C18.5622 36.178 18.0501 36.7975 17.5446 37.417C16.5204 36.6975 15.6225 36.7109 15.004 37.4236C14.4519 38.0698 14.4852 39.1889 15.0705 39.7951C15.709 40.4545 16.5736 40.4279 17.5313 39.6818C18.0501 40.3013 18.5622 40.9208 19.0743 41.5337H19.081Z" fill="black"></path>
<path d="M52.2293 6.9817V0.120543C53.8854 0.20714 55.5415 -0.119265 57.1177 0.553528C58.0223 0.939885 58.6674 1.79253 58.8204 2.76509C59.1928 5.0699 57.9957 6.71525 55.6745 6.95505C54.5505 7.07496 53.4065 6.97504 52.2227 6.97504L52.2293 6.9817ZM54.4374 5.06324C55.2156 5.06324 55.9804 5.13651 56.4127 4.28386C56.6455 3.81757 56.6389 3.2447 56.3662 2.79839C55.9339 2.08563 55.2089 2.05899 54.4374 2.13892V5.06324Z" fill="black"></path>
<path d="M28.6061 82.8674H26.378V80.2961H24.4625V82.854H22.168V76.0195H24.4226V78.3044H26.3315V76.0262H28.5994V82.8607L28.6061 82.8674Z" fill="black"></path>
<path d="M8.44183 76.0127H10.7031V81.1153H12.5521V76.0194H14.8334C14.84 76.1726 14.8533 76.3058 14.86 76.439C14.86 78.0244 14.86 79.6098 14.86 81.1952C14.86 82.3609 14.3412 82.8805 13.1706 82.8872C12.153 82.8938 11.1421 82.8872 10.1245 82.8872C8.9473 82.8872 8.42853 82.3743 8.42188 81.2085C8.42188 79.6098 8.42188 78.0044 8.42188 76.4057C8.42188 76.2858 8.43518 76.1659 8.44183 76.0127Z" fill="black"></path>
<path d="M27.6938 4.31032C28.2391 5.18295 28.7912 6.06891 29.3698 6.99483H26.736C26.3237 6.22878 25.8914 5.42942 25.4524 4.6234C25.4192 4.6234 25.3859 4.6234 25.3526 4.63006V6.99483H23.1445V0.127015C23.6899 0.127015 24.222 0.113692 24.7541 0.127015C25.4923 0.146999 26.2372 0.113692 26.9622 0.220273C28.6515 0.466742 29.443 2.27862 28.4586 3.5909C28.2591 3.85069 27.9731 4.04387 27.6871 4.31032H27.6938ZM25.3393 3.03801C25.7983 3.05799 26.2505 3.15791 26.5166 2.74491C26.6097 2.60502 26.5964 2.28528 26.4966 2.15872C26.1973 1.77236 25.7583 1.94555 25.3393 1.95222V3.03801Z" fill="black"></path>
<path d="M37.9453 76.086C39.2688 76.086 40.5458 76.0261 41.8162 76.106C42.6276 76.1593 43.2727 76.6323 43.5254 77.4516C43.7649 78.2043 43.7117 78.9504 43.1463 79.5699C42.9668 79.7697 42.7273 79.923 42.4746 80.1361C43.02 81.0154 43.572 81.908 44.1573 82.8473H41.5368C41.1178 82.0679 40.6788 81.2685 40.2465 80.4625C40.2199 80.4625 40.1933 80.4692 40.1667 80.4758V82.8339H37.9453V76.0727V76.086ZM40.1468 78.9371C40.5857 78.8971 41.038 79.0237 41.304 78.5974C41.3905 78.4575 41.3971 78.171 41.304 78.0445C41.018 77.6248 40.5658 77.8313 40.1468 77.7713V78.9304V78.9371Z" fill="black"></path>
<path d="M8.0129 82.8666H5.53876C5.41904 82.5601 5.28602 82.2337 5.153 81.9007H2.95154C2.83848 82.2204 2.72541 82.5335 2.6057 82.8666H0.191406C1.09593 80.5617 1.98716 78.3036 2.87838 76.0254H5.34588C6.21715 78.2703 7.09508 80.5284 8.00625 82.8666H8.0129ZM4.63423 80.0955C4.45465 79.5359 4.28838 79.0296 4.12876 78.5234C4.0955 78.5234 4.06225 78.5234 4.03565 78.5234C3.86937 79.0363 3.69645 79.5426 3.51022 80.1021H4.63423V80.0955Z" fill="black"></path>
<path d="M3.51669 0.146484H5.97753C6.8621 2.42465 7.74668 4.6895 8.65121 7.00098H6.16376L5.79796 6.04175H3.57654L3.244 7.00098H0.816406L3.51669 0.146484ZM4.77371 2.67112C4.73381 2.67112 4.6939 2.67112 4.65399 2.67778C4.48772 3.18404 4.32145 3.69697 4.14852 4.23653H5.26588C5.09296 3.6903 4.93333 3.18404 4.76706 2.67112H4.77371Z" fill="black"></path>
<path d="M42.6536 0.159982H44.8817C44.9947 0.159982 45.0745 0.273224 45.0346 0.379805L42.6802 6.90123C42.6536 6.96785 42.5937 7.00782 42.5272 7.00782H40.1861C40.1196 7.00782 40.0531 6.96119 40.0331 6.89457C39.2683 4.72965 38.5034 2.56472 37.7253 0.373144C37.6854 0.266563 37.7652 0.15332 37.8782 0.15332H40.1129C40.1861 0.15332 40.2526 0.206611 40.2726 0.273224C40.5785 1.42563 40.8911 2.57138 41.197 3.71046H41.6161L42.5006 0.279885C42.5206 0.206611 42.5871 0.15332 42.6603 0.15332L42.6536 0.159982Z" fill="black"></path>
<path d="M45.9961 0.146484H50.6584V1.99833H48.1443C48.131 2.21815 48.1244 2.39135 48.1111 2.63782H50.4921V4.43637H48.1576V5.12249H50.8247V6.99432H45.9961V0.146484Z" fill="black"></path>
<path d="M16.3008 6.98832V0.0605469C17.6975 0.133821 19.0809 0.120499 20.4377 0.307016C21.4885 0.453565 22.0605 1.3595 22.0538 2.46528C22.0538 3.55108 21.442 4.37708 20.3978 4.62355C19.8258 4.75677 19.2205 4.78342 18.5821 4.87002V6.99498H16.3008V6.98832ZM18.602 1.95236V3.03149C19.0277 3.05814 19.4467 3.13141 19.7061 2.74506C19.7925 2.61183 19.7925 2.31873 19.7061 2.19217C19.4334 1.81247 19.021 1.91239 18.6087 1.95236H18.602Z" fill="black"></path>
<path d="M11.7723 4.77654V6.98809H9.48438V0.186888C9.53758 0.173566 9.60409 0.133598 9.67725 0.133598C10.7547 0.133598 11.8322 0.120275 12.903 0.166904C14.732 0.253501 15.7229 1.72565 15.0712 3.371C14.6788 4.35687 13.8341 4.67662 12.8697 4.77654C12.5239 4.80984 12.1714 4.77654 11.7723 4.77654ZM11.7922 1.80559V3.03793C12.2113 3.07124 12.6236 3.13785 12.8697 2.77148C12.9628 2.63825 12.9296 2.27854 12.8697 2.19861C12.4374 1.65238 12.198 1.80559 11.7922 1.80559Z" fill="black"></path>
<path d="M57.0862 82.8805H54.4259C55.1043 81.9279 55.7428 81.0353 56.3946 80.1294C55.6363 78.7572 54.8914 77.4116 54.1133 76.0127H56.5808C56.9665 76.6921 57.3589 77.3982 57.7912 78.1576C58.33 77.4116 58.8354 76.7188 59.3476 76.0127H62.0079C60.3452 78.3375 58.7157 80.6157 57.0929 82.8739L57.0862 82.8805Z" fill="black"></path>
<path d="M21.3232 76.0195V77.938H19.6671V82.8607H17.3792V77.9713H15.7031V76.0262H21.3232V76.0195Z" fill="black"></path>
<path d="M53.481 76.0262C53.481 76.5258 53.481 76.9987 53.481 77.4717C53.481 77.6049 53.4677 77.7448 53.4544 77.9313H51.805V82.854H49.4838V77.9513H47.8477V76.0195H53.481V76.0262Z" fill="black"></path>
<path d="M14.8466 14.9877C15.8443 15.6938 16.097 16.3333 15.7512 17.206C15.5317 17.7655 15.1193 18.2118 14.554 18.2385C13.1972 18.3117 11.8404 18.2651 10.457 18.2651V12.1966C10.6167 12.1966 10.763 12.1966 10.9093 12.1966C11.9202 12.1966 12.9378 12.1767 13.9488 12.2033C15.0661 12.2366 15.5916 12.7495 15.5982 13.7487C15.5982 14.3016 15.3388 14.708 14.8533 14.9811L14.8466 14.9877ZM11.7008 17.3925C12.4257 17.3925 13.1174 17.4258 13.7958 17.3792C14.2614 17.3458 14.5274 16.9928 14.5474 16.5332C14.5607 16.0935 14.3279 15.6938 13.8956 15.6605C13.1706 15.6006 12.439 15.6472 11.7008 15.6472V17.3925ZM11.734 14.7013C12.3525 14.7013 12.9511 14.7146 13.5497 14.7013C14.0352 14.688 14.268 14.4615 14.3079 14.0152C14.3545 13.5622 14.135 13.2425 13.6362 13.1958C13.0176 13.1426 12.3858 13.1825 11.7274 13.1825V14.7013H11.734Z" fill="black"></path>
<path d="M39.4016 23.1221H37.3664C37.2158 23.1221 37.0938 23.2443 37.0938 23.3952V30.5894C37.0938 30.7402 37.2158 30.8625 37.3664 30.8625H39.4016C39.5522 30.8625 39.6743 30.7402 39.6743 30.5894V23.3952C39.6743 23.2443 39.5522 23.1221 39.4016 23.1221Z" fill="black"></path>
<path d="M46.291 13.1162V14.7083H49.6896V15.6609H46.2977V17.4061H50.3747V18.3187H45.0273V12.2236H50.2882V13.1162H46.2844H46.291Z" fill="black"></path>
<path d="M37.9102 18.3056V12.2305H39.1406V14.5819H41.8941V12.2371H43.1378V18.3189H41.9273V15.5878H39.1871V18.3056H37.9102Z" fill="black"></path>
<path d="M47.1152 82.8732H44.8672V76.0254H47.1152V82.8732Z" fill="black"></path>
<path d="M23.4509 12.2236C22.6328 13.3827 21.8813 14.4685 21.1031 15.541C20.8637 15.8674 20.7506 16.1938 20.7705 16.6001C20.7971 17.1663 20.7772 17.7325 20.7772 18.3321H19.5069C19.5069 17.6793 19.5268 17.0464 19.4936 16.4269C19.4803 16.1805 19.4071 15.9073 19.2674 15.7075C18.5757 14.6883 17.8508 13.6958 17.1458 12.6899C17.0527 12.5567 16.9662 12.4168 16.8398 12.2303H18.3829C18.9349 13.0896 19.5069 13.9822 20.1321 14.9481C20.7439 14.0022 21.3359 13.1029 21.9012 12.2303H23.4442L23.4509 12.2236Z" fill="black"></path>
<path d="M36.0286 12.2373V13.1432H33.7473V18.3324H32.4637V13.1299H30.1758V12.2373H36.022H36.0286Z" fill="black"></path>
<path d="M8.99219 70.3773C9.21167 70.3507 9.4245 70.2907 9.64398 70.2907C12.9495 70.2907 16.255 70.2907 19.5539 70.2907C19.7534 70.2907 19.9529 70.2774 20.1525 70.3107C20.2522 70.324 20.3453 70.4173 20.4451 70.4706C20.4318 70.5172 20.4185 70.5572 20.4052 70.6038H9.01879L8.99219 70.3773Z" fill="black"></path>
<path d="M22.1997 49.2209C21.8073 49.5274 15.7416 49.534 15.3359 49.2609C15.5155 49.201 15.6352 49.1144 15.7549 49.1144C17.7502 49.1077 19.7455 49.1077 21.7408 49.1144C21.8605 49.1144 21.9802 49.1743 22.1997 49.2276V49.2209Z" fill="black"></path>
<path d="M19.2532 71.556C18.9206 71.556 18.5814 71.556 18.2489 71.556C16.8056 71.556 15.3557 71.556 13.9125 71.556C13.7528 71.556 13.5932 71.4894 13.4336 71.4561C13.4402 71.3962 13.4469 71.3295 13.4535 71.2696C13.6065 71.2429 13.7661 71.1963 13.9191 71.1963C15.5619 71.1963 17.2113 71.1897 18.8541 71.1963C19.0137 71.1963 19.1733 71.2896 19.333 71.3429C19.3064 71.4161 19.2798 71.4828 19.2598 71.556H19.2532Z" fill="black"></path>
<path d="M57.6842 52.0713C57.3384 52.3444 52.2371 52.3245 51.9844 52.0713C52.3036 51.8249 57.2785 51.8049 57.6842 52.0713Z" fill="black"></path>
<path d="M26.4922 71.5293C26.6651 71.2096 28.3212 71.0564 29.3055 71.2163C29.4119 71.2362 29.4984 71.3495 29.5982 71.4161C29.5782 71.4561 29.5649 71.4894 29.545 71.5293H26.4988H26.4922Z" fill="black"></path>
<path d="M49.668 71.4427C50.067 71.1963 50.7587 71.2163 51.0248 71.4627C50.7454 71.7225 49.9806 71.7292 49.668 71.4427Z" fill="black"></path>
<path d="M59.4254 52.2247H58.2149C58.195 52.178 58.175 52.1314 58.1484 52.0848C58.2549 52.0248 58.3613 51.8983 58.461 51.9049C58.8002 51.9249 59.2059 51.7517 59.4786 52.0382C59.4587 52.0981 59.4387 52.1581 59.4254 52.218V52.2247Z" fill="black"></path>
<path d="M53.7798 64.4552C52.995 64.7017 52.5095 64.6151 52.4297 64.2421C52.862 64.282 53.301 64.0689 53.7798 64.4552Z" fill="black"></path>
<path d="M38.9609 47.1822C39.0274 46.8625 39.5529 46.7892 40.1515 47.009C40.0517 47.2955 39.5861 47.3621 38.9609 47.1822Z" fill="black"></path>
<path d="M55.1367 58.0071C55.2232 57.9338 55.3163 57.7939 55.3961 57.8072C55.6954 57.8405 56.0678 57.634 56.3871 58.0937H55.2032C55.2032 58.0937 55.1567 58.0337 55.1367 58.0071Z" fill="black"></path>
<path d="M55.9004 62.4835C55.528 62.4168 55.1422 62.6034 54.8828 62.3369C54.8961 62.277 54.9094 62.2103 54.9227 62.1504H55.9403C55.927 62.257 55.9137 62.3569 55.9004 62.4768V62.4835Z" fill="black"></path>
<path d="M48.3571 49.893H47.3595C47.3395 49.8464 47.3196 49.7998 47.293 49.7531C47.3994 49.6932 47.5124 49.5666 47.6122 49.5733C47.845 49.5999 48.1842 49.4067 48.3571 49.8863V49.893Z" fill="black"></path>
<path d="M53.7545 66.5869H52.8633C53.1759 66.2138 53.4419 66.2205 53.7545 66.5869Z" fill="black"></path>
<path d="M51.4168 67.4597C51.8026 67.1933 52.0553 67.2399 52.1484 67.6729C51.8824 67.6529 51.6496 67.6396 51.4102 67.6196C51.4102 67.5663 51.4168 67.513 51.4235 67.4664L51.4168 67.4597Z" fill="black"></path>
<path d="M51.7841 70.4371C51.5579 70.4504 51.3318 70.4638 50.9727 70.4837C51.099 70.2972 51.1522 70.1374 51.2187 70.1374C51.4183 70.1307 51.6244 70.1773 51.824 70.204C51.8107 70.2839 51.804 70.3638 51.7907 70.4438L51.7841 70.4371Z" fill="black"></path>
<path d="M50.5888 66.3867C50.2961 66.7598 50.0633 66.7464 49.7773 66.3867H50.5888Z" fill="black"></path>
<path d="M30.6294 71.5291H30.1173C30.0973 71.4891 30.0707 71.4425 30.0508 71.4025C30.1572 71.3359 30.257 71.2227 30.3634 71.2227C30.4698 71.2227 30.5829 71.3359 30.6893 71.3959C30.6693 71.4425 30.6494 71.4824 30.6294 71.5291Z" fill="black"></path>
<path d="M25.207 48.5476C25.34 48.108 25.4531 48.088 25.8455 48.4544C25.5928 48.4877 25.4199 48.5143 25.207 48.5476Z" fill="black"></path>
<path d="M10.9878 49.9931C10.8282 49.9731 10.6752 49.9598 10.5156 49.9398C10.5156 49.8798 10.5223 49.8199 10.5289 49.7666H11.0144C11.0011 49.8399 10.9945 49.9198 10.9812 49.9931H10.9878Z" fill="black"></path>
<path d="M50.0817 51.139C49.9287 51.1857 49.7758 51.2323 49.6161 51.2789C49.5895 51.2057 49.5629 51.139 49.543 51.0658C49.6893 51.0058 49.8423 50.9459 49.9886 50.8926C50.0218 50.9725 50.0484 51.0591 50.0817 51.139Z" fill="black"></path>
<path d="M31.0742 70.4371C31.2338 70.3971 31.3935 70.3572 31.5464 70.3105C31.5265 70.7768 31.327 70.6969 31.0742 70.4371Z" fill="black"></path>
<path d="M38.8281 47.7947C38.9811 47.7547 39.1341 47.7148 39.2937 47.6748C39.3136 47.7481 39.3336 47.8214 39.3535 47.8946C39.2006 47.9346 39.0476 47.9812 38.888 48.0212C38.868 47.9413 38.8481 47.868 38.8281 47.788V47.7947Z" fill="black"></path>
<path d="M53.2727 58.8992C53.3791 58.9126 53.4855 58.9259 53.5919 58.9392C53.5919 58.9992 53.5919 59.0591 53.5853 59.1124H53.2461C53.2527 59.0391 53.266 58.9659 53.2727 58.8926V58.8992Z" fill="black"></path>
<path d="M55.2162 55.129C55.1098 55.149 54.9967 55.169 54.8903 55.1956C54.877 55.1357 54.8637 55.0691 54.8438 55.0091C54.9435 54.9758 55.0433 54.9425 55.1497 54.9092C55.1696 54.9825 55.1962 55.0557 55.2162 55.129Z" fill="black"></path>
<path d="M56.8648 57.7871C56.8914 57.8804 56.9246 57.9736 56.9512 58.0669C56.8714 58.0869 56.7916 58.1069 56.7118 58.1268C56.6985 58.0336 56.6852 57.9337 56.6719 57.8404C56.7384 57.8271 56.7982 57.8138 56.8648 57.7938V57.7871Z" fill="black"></path>
<path d="M10.1434 61.3707C10.1966 61.2974 10.2365 61.1708 10.303 61.1575C10.3695 61.1442 10.456 61.2375 10.6289 61.3374C10.4227 61.4107 10.3296 61.444 10.2298 61.4773C10.1966 61.444 10.17 61.404 10.1367 61.3707H10.1434Z" fill="black"></path>
<path d="M52.6213 66.567C52.5082 66.5804 52.3952 66.6003 52.2754 66.6137C52.2621 66.5604 52.2555 66.5004 52.2422 66.4471C52.3553 66.4205 52.4683 66.3938 52.5814 66.3672C52.5947 66.4338 52.608 66.5071 52.6213 66.5737V66.567Z" fill="black"></path>
<path d="M47.8249 50.4463C47.7119 50.473 47.5988 50.4996 47.3594 50.5596C47.4791 50.373 47.499 50.2864 47.539 50.2798C47.6254 50.2665 47.7185 50.2864 47.8116 50.2998C47.8116 50.3464 47.8249 50.3997 47.8316 50.4463H47.8249Z" fill="black"></path>
<path d="M25.8594 46.8022C25.9658 46.7689 26.0656 46.7423 26.172 46.709C26.1919 46.7689 26.2185 46.8289 26.2385 46.8888C26.1321 46.9288 26.0256 46.9754 25.9259 47.0154C25.9059 46.9421 25.886 46.8689 25.8594 46.7956V46.8022Z" fill="black"></path>
<path d="M55.5352 55.0827C55.6349 55.0294 55.728 54.9761 55.8278 54.9229C55.8611 54.9761 55.8943 55.0294 55.9276 55.0761C55.8411 55.1427 55.7546 55.2093 55.6682 55.2759C55.6216 55.2093 55.5817 55.1427 55.5352 55.0761V55.0827Z" fill="black"></path>
<path d="M9.51562 62.2969C9.62869 62.3102 9.73511 62.3169 9.84817 62.3302C9.84817 62.3901 9.84817 62.4434 9.84817 62.5034C9.73511 62.5034 9.62869 62.5167 9.51562 62.5167C9.51562 62.4434 9.51562 62.3701 9.51562 62.2969Z" fill="black"></path>
<path d="M53.8916 67.5929C53.7785 67.5929 53.6721 67.6062 53.559 67.6129C53.5524 67.5529 53.5457 67.493 53.5391 67.433C53.6521 67.413 53.7585 67.393 53.8716 67.373C53.8783 67.4463 53.8849 67.5196 53.8982 67.5929H53.8916Z" fill="black"></path>
<path d="M32.2852 68.6788C32.345 68.6055 32.3982 68.5323 32.4581 68.459C32.5179 68.5123 32.5778 68.5656 32.631 68.6189C32.5645 68.6855 32.4913 68.7454 32.4248 68.812C32.3783 68.7654 32.3317 68.7254 32.2852 68.6788Z" fill="black"></path>
<path d="M47.9883 69.4842C47.9883 69.3842 48.0016 69.2843 48.0082 69.1777C48.0747 69.1844 48.1413 69.1977 48.2144 69.2044C48.1945 69.3043 48.1745 69.4042 48.1546 69.5041C48.1013 69.4975 48.0481 69.4908 47.9949 69.4842H47.9883Z" fill="black"></path>
<path d="M53.9904 61.1711H53.6445C53.6911 61.0578 53.7243 60.9379 53.7376 60.9446C53.8374 60.9646 53.9305 61.0046 54.0303 61.0445C54.017 61.0912 54.0037 61.1311 53.9904 61.1777V61.1711Z" fill="black"></path>
<path d="M56.2469 55.835C56.3467 55.8416 56.4465 55.8483 56.5861 55.8616C56.5529 55.9682 56.5329 56.0614 56.513 56.0614C56.4132 56.0614 56.3068 56.0415 56.207 56.0215C56.2203 55.9615 56.2336 55.8949 56.2469 55.835Z" fill="black"></path>
<path d="M51.8094 53.9238C51.9159 53.9505 52.0156 53.9771 52.122 54.0038C52.1087 54.0637 52.0954 54.1237 52.0821 54.1903C51.9757 54.177 51.8759 54.1636 51.7695 54.1437C51.7828 54.0704 51.7961 53.9971 51.8094 53.9238Z" fill="black"></path>
<path d="M26.0531 53.0438C25.9999 52.9639 25.94 52.8773 25.8203 52.7041C26.0198 52.7241 26.1662 52.7041 26.1795 52.7441C26.2127 52.824 26.1795 52.9306 26.1662 53.0238C26.1263 53.0305 26.093 53.0372 26.0531 53.0438Z" fill="black"></path>
<path d="M11.4665 51.3719C11.5663 51.4185 11.6661 51.4718 11.7658 51.5184C11.7392 51.5784 11.7126 51.6317 11.6927 51.6916C11.5929 51.6583 11.4931 51.625 11.3867 51.5851C11.4133 51.5118 11.4399 51.4385 11.4665 51.3652V51.3719Z" fill="black"></path>
<path d="M53.0473 67.479C52.8411 67.5789 52.7546 67.6189 52.5352 67.7255C52.615 67.5123 52.6283 67.3858 52.6815 67.3591C52.7413 67.3325 52.8411 67.4057 53.0406 67.479H53.0473Z" fill="black"></path>
<path d="M54.6041 61.0975C54.5043 61.1374 54.4112 61.1707 54.3114 61.2107C54.2848 61.1574 54.2649 61.1108 54.2383 61.0575C54.3314 61.0042 54.4245 60.9509 54.5243 60.9043C54.5509 60.9709 54.5775 61.0309 54.6041 61.0975Z" fill="black"></path>
<path d="M31.7376 51.592C32.855 55.6421 33.9723 59.6988 35.1096 63.8222C34.8503 63.8821 34.684 63.9487 34.5177 63.9487C32.5623 63.9554 30.6136 63.9554 28.6582 63.9487C28.4986 63.9487 28.339 63.8955 28.1328 63.8622C28.1528 63.6557 28.1395 63.4891 28.1794 63.3359C29.2302 59.5256 30.2811 55.7154 31.3386 51.9117C31.3785 51.7719 31.5048 51.652 31.5913 51.5254C31.6379 51.5454 31.6844 51.5654 31.7376 51.5853V51.592ZM30.2146 58.4532C30.8464 58.4532 31.445 58.4398 32.0369 58.4598C32.1766 58.4598 32.3096 58.5731 32.4426 58.633C32.4227 58.693 32.4027 58.7463 32.3828 58.8062H30.1148C30.0549 59.026 30.0017 59.2059 29.9352 59.4457C30.4207 59.4457 30.8397 59.4191 31.2454 59.4524C31.6379 59.4857 32.0768 59.2991 32.416 59.6788C31.5647 59.8987 30.6934 59.7521 29.8022 59.8454C29.7689 59.9853 29.7357 60.1252 29.7024 60.285C30.4141 60.4249 31.1257 60.1784 31.7709 60.5048C31.0659 60.8246 30.3077 60.5781 29.5561 60.7313C29.5362 60.8446 29.5229 60.9645 29.4963 61.1177C29.9618 61.1177 30.3742 61.0977 30.7865 61.1177C31.1856 61.1443 31.6179 60.9845 31.9771 61.3308C31.1191 61.5773 30.2412 61.4041 29.3499 61.504C29.3167 61.6373 29.2768 61.7772 29.2169 62.0236H32.2763L32.3096 62.2301C32.1699 62.2701 32.0303 62.35 31.8839 62.35C31.0659 62.3634 30.2545 62.35 29.4364 62.37C29.31 62.37 29.1837 62.4433 29.0506 62.4833C29.0573 62.5499 29.0706 62.6165 29.0772 62.6898H30.2478C30.2478 62.7497 30.2611 62.8097 30.2678 62.863C29.902 63.256 29.2701 62.803 28.9043 63.2626H34.2849C33.7861 61.4641 33.3072 59.7121 32.8217 57.9735H30.3143C30.2744 58.1334 30.2478 58.26 30.2013 58.4532H30.2146ZM30.7333 56.528C31.1257 56.5547 31.4649 56.5747 31.8041 56.5947C31.4915 57.1076 30.9861 56.7612 30.5937 57.001C30.5538 57.1475 30.5138 57.3207 30.454 57.5339H32.7087C32.3362 56.195 31.9771 54.9093 31.6246 53.6237C31.5913 53.6237 31.558 53.6304 31.5248 53.637C31.4583 53.8635 31.3851 54.0967 31.3253 54.3098C31.4317 54.4564 31.5181 54.5763 31.6246 54.7228C31.4317 54.7961 31.3053 54.8427 31.1656 54.8894C31.1257 55.0759 31.0858 55.2424 31.0526 55.3823C31.3785 55.5755 31.8241 55.2557 32.0635 55.8219H30.9063C30.8397 56.0817 30.7932 56.2749 30.7333 56.528Z" fill="black"></path>
<path d="M39.932 58.5131C39.779 58.8328 39.6925 58.8528 39.207 58.7062C39.2669 58.3732 39.38 58.3465 39.932 58.5131Z" fill="black"></path>
<path d="M40.2446 58.4666H40.79L40.8565 58.5665C40.7634 58.6398 40.6769 58.7664 40.5838 58.7664C40.4574 58.7664 40.3244 58.6798 40.1914 58.6265C40.2114 58.5732 40.2247 58.5133 40.2446 58.46V58.4666Z" fill="black"></path>
<path d="M40.3697 57.8207H39.7578C39.9507 57.4543 40.1569 57.4543 40.3697 57.8207Z" fill="black"></path>
</g>
<defs>
<clipPath id="svg-1020239642_47317_clip0_1063_3563">
<rect width="62" height="83" fill="white"></rect>
</clipPath>
</defs>
</svg>